<?xml version="1.0" encoding="utf-8"?>
<!-- Generator: Adobe Illustrator 16.0.0, SVG Export Plug-In . SVG Version: 6.00 Build 0)  -->
<!DOCTYPE svg PUBLIC "-//W3C//DTD SVG 1.1//EN" "http://www.w3.org/Graphics/SVG/1.1/DTD/svg11.dtd">
<svg version="1.1" id="Calque_2" xmlns="http://www.w3.org/2000/svg" xmlns:xlink="http://www.w3.org/1999/xlink" x="0px" y="0px"
	 width="128px" height="128px" viewBox="0 0 128 128" enable-background="new 0 0 128 128" xml:space="preserve">
<path fill="none" stroke="#FF0000" stroke-width="5" stroke-linecap="round" stroke-linejoin="round" stroke-miterlimit="10" d="
	M116.034,96.421H10.7c-3.177,0-5.775-2.601-5.775-5.774V19.898c0-3.177,2.598-5.775,5.775-5.775h105.334
	c3.177,0,5.774,2.598,5.774,5.775v70.749C121.811,93.82,119.211,96.421,116.034,96.421z"/>
<path fill="none" stroke="#FF0000" stroke-width="5" stroke-linecap="round" stroke-linejoin="round" stroke-miterlimit="10" d="
	M90.402,110.732H70.186V96.421H57.859v14.313H36.333c-2.297,0-4.173,1.877-4.173,4.175c0,2.296,1.876,4.174,4.173,4.174h54.069
	c2.298,0,4.174-1.878,4.174-4.174C94.575,112.611,92.699,110.732,90.402,110.732z"/>
<g>
	<defs>
		<path id="SVGID_1_" d="M114.076,19.385c1.104,0,2,0.896,2,2V87.5c0,1.104-0.896,2-2,2H85.522c-1.104,0-2-0.896-2-2V21.385
			c0-1.104,0.896-2,2-2H114.076z"/>
	</defs>
	<clipPath id="SVGID_2_">
		<use xlink:href="#SVGID_1_"  overflow="visible"/>
	</clipPath>
	<g id="XMLID_21_" clip-path="url(#SVGID_2_)">
		<polygon id="XMLID_1063_" fill="#FF0000" points="56.522,89.098 56.924,89.5 58.062,89.5 56.522,87.961 		"/>
		<polygon id="XMLID_1064_" fill="#FF0000" points="56.522,86.824 59.199,89.5 60.336,89.5 56.522,85.686 		"/>
		<polygon id="XMLID_1065_" fill="#FF0000" points="56.522,84.549 61.474,89.5 62.61,89.5 56.522,83.412 		"/>
		<polygon id="XMLID_1066_" fill="#FF0000" points="56.522,82.275 63.748,89.5 64.885,89.5 56.522,81.139 		"/>
		<polygon id="XMLID_1067_" fill="#FF0000" points="56.522,80 66.022,89.5 67.159,89.5 56.522,78.863 		"/>
		<polygon id="XMLID_1068_" fill="#FF0000" points="56.522,77.725 68.298,89.5 69.435,89.5 56.522,76.588 		"/>
		<polygon id="XMLID_1069_" fill="#FF0000" points="56.522,75.451 70.571,89.5 71.709,89.5 56.522,74.313 		"/>
		<polygon id="XMLID_1070_" fill="#FF0000" points="56.522,73.176 72.846,89.5 73.983,89.5 56.522,72.039 		"/>
		<polygon id="XMLID_1071_" fill="#FF0000" points="56.522,70.902 75.12,89.5 76.257,89.5 56.522,69.766 		"/>
		<polygon id="XMLID_1072_" fill="#FF0000" points="56.522,68.627 77.395,89.5 78.531,89.5 56.522,67.49 		"/>
		<polygon id="XMLID_1073_" fill="#FF0000" points="56.522,66.354 79.668,89.5 80.806,89.5 56.522,65.217 		"/>
		<polygon id="XMLID_1074_" fill="#FF0000" points="56.522,64.08 81.942,89.5 83.08,89.5 56.522,62.941 		"/>
		<polygon id="XMLID_1075_" fill="#FF0000" points="56.522,61.805 84.218,89.5 85.354,89.5 56.522,60.668 		"/>
		<polygon id="XMLID_1076_" fill="#FF0000" points="56.522,59.529 86.493,89.5 87.63,89.5 56.522,58.393 		"/>
		<polygon id="XMLID_1077_" fill="#FF0000" points="56.522,57.254 88.768,89.5 89.904,89.5 56.522,56.117 		"/>
		<polygon id="XMLID_1078_" fill="#FF0000" points="56.522,54.98 91.041,89.5 92.179,89.5 56.522,53.844 		"/>
		<polygon id="XMLID_1079_" fill="#FF0000" points="56.522,52.706 93.315,89.5 94.453,89.5 56.522,51.569 		"/>
		<polygon id="XMLID_1080_" fill="#FF0000" points="56.522,50.432 95.59,89.5 96.727,89.5 56.522,49.294 		"/>
		<polygon id="XMLID_1081_" fill="#FF0000" points="56.522,48.158 97.864,89.5 99.001,89.5 56.522,47.021 		"/>
		<polygon id="XMLID_1082_" fill="#FF0000" points="56.522,45.883 100.138,89.5 101.275,89.5 56.522,44.746 		"/>
		<polygon id="XMLID_1083_" fill="#FF0000" points="56.522,43.608 102.412,89.5 103.55,89.5 56.522,42.472 		"/>
		<polygon id="XMLID_1084_" fill="#FF0000" points="56.522,41.334 104.688,89.5 105.824,89.5 56.522,40.197 		"/>
		<polygon id="XMLID_1085_" fill="#FF0000" points="56.522,39.06 106.963,89.5 108.1,89.5 56.522,37.923 		"/>
		<polygon id="XMLID_1086_" fill="#FF0000" points="56.522,36.785 109.237,89.5 110.374,89.5 56.522,35.648 		"/>
		<polygon id="XMLID_1087_" fill="#FF0000" points="56.522,34.511 111.511,89.5 112.648,89.5 56.522,33.374 		"/>
		<polygon id="XMLID_1088_" fill="#FF0000" points="56.522,32.236 113.785,89.5 114.923,89.5 56.522,31.099 		"/>
		<polygon id="XMLID_1089_" fill="#FF0000" points="56.522,29.962 116.06,89.5 117.196,89.5 56.522,28.825 		"/>
		<polygon id="XMLID_1090_" fill="#FF0000" points="56.522,27.688 118.334,89.5 119.471,89.5 56.522,26.551 		"/>
		<polygon id="XMLID_1091_" fill="#FF0000" points="56.522,25.413 120.607,89.5 121.745,89.5 56.522,24.276 		"/>
		<polygon id="XMLID_1092_" fill="#FF0000" points="56.522,23.138 122.882,89.5 124.02,89.5 56.522,22.001 		"/>
		<polygon id="XMLID_1093_" fill="#FF0000" points="56.522,20.864 125.158,89.5 126.295,89.5 56.522,19.727 		"/>
		<polygon id="XMLID_1094_" fill="#FF0000" points="128,88.932 57.091,18.021 56.522,18.021 56.522,18.59 127.433,89.5 128,89.5 		
			"/>
		<polygon id="XMLID_1095_" fill="#FF0000" points="128,86.658 59.365,18.021 58.228,18.021 128,87.795 		"/>
		<polygon id="XMLID_1096_" fill="#FF0000" points="128,84.381 61.639,18.021 60.502,18.021 128,85.52 		"/>
		<polygon id="XMLID_1097_" fill="#FF0000" points="128,82.107 63.914,18.021 62.777,18.021 128,83.244 		"/>
		<polygon id="XMLID_1098_" fill="#FF0000" points="128,79.834 66.189,18.021 65.052,18.021 128,80.971 		"/>
		<polygon id="XMLID_1099_" fill="#FF0000" points="128,77.559 68.463,18.021 67.325,18.021 128,78.695 		"/>
		<polygon id="XMLID_1100_" fill="#FF0000" points="128,75.285 70.737,18.021 69.6,18.021 128,76.422 		"/>
		<polygon id="XMLID_1101_" fill="#FF0000" points="128,73.01 73.012,18.021 71.874,18.021 128,74.148 		"/>
		<polygon id="XMLID_1102_" fill="#FF0000" points="128,70.736 75.285,18.021 74.148,18.021 128,71.873 		"/>
		<polygon id="XMLID_1103_" fill="#FF0000" points="128,68.463 77.561,18.021 76.424,18.021 128,69.6 		"/>
		<polygon id="XMLID_1104_" fill="#FF0000" points="128,66.188 79.835,18.021 78.698,18.021 128,67.324 		"/>
		<polygon id="XMLID_1105_" fill="#FF0000" points="128,63.912 82.11,18.021 80.973,18.021 128,65.049 		"/>
		<polygon id="XMLID_1106_" fill="#FF0000" points="128,61.637 84.385,18.021 83.247,18.021 128,62.775 		"/>
		<polygon id="XMLID_1107_" fill="#FF0000" points="128,59.363 86.658,18.021 85.521,18.021 128,60.5 		"/>
		<polygon id="XMLID_1108_" fill="#FF0000" points="128,57.089 88.933,18.021 87.796,18.021 128,58.227 		"/>
		<polygon id="XMLID_1109_" fill="#FF0000" points="128,54.814 91.207,18.021 90.069,18.021 128,55.951 		"/>
		<polygon id="XMLID_1110_" fill="#FF0000" points="128,52.54 93.481,18.021 92.344,18.021 128,53.677 		"/>
		<polygon id="XMLID_1111_" fill="#FF0000" points="128,50.266 95.755,18.021 94.618,18.021 128,51.403 		"/>
		<polygon id="XMLID_1112_" fill="#FF0000" points="128,47.991 98.03,18.021 96.894,18.021 128,49.128 		"/>
		<polygon id="XMLID_1113_" fill="#FF0000" points="128,45.717 100.306,18.021 99.169,18.021 128,46.854 		"/>
		<polygon id="XMLID_1114_" fill="#FF0000" points="128,43.443 102.58,18.021 101.442,18.021 128,44.58 		"/>
		<polygon id="XMLID_1115_" fill="#FF0000" points="128,41.168 104.854,18.021 103.717,18.021 128,42.305 		"/>
		<polygon id="XMLID_1116_" fill="#FF0000" points="128,38.893 107.128,18.021 105.991,18.021 128,40.03 		"/>
		<polygon id="XMLID_1117_" fill="#FF0000" points="128,36.619 109.402,18.021 108.266,18.021 128,37.756 		"/>
		<polygon id="XMLID_1118_" fill="#FF0000" points="128,34.345 111.677,18.021 110.539,18.021 128,35.482 		"/>
		<polygon id="XMLID_1119_" fill="#FF0000" points="128,32.07 113.951,18.021 112.813,18.021 128,33.208 		"/>
		<polygon id="XMLID_1120_" fill="#FF0000" points="128,29.796 116.225,18.021 115.088,18.021 128,30.933 		"/>
		<polygon id="XMLID_1121_" fill="#FF0000" points="128,27.521 118.501,18.021 117.364,18.021 128,28.658 		"/>
		<polygon id="XMLID_1122_" fill="#FF0000" points="128,25.247 120.775,18.021 119.639,18.021 128,26.384 		"/>
		<polygon id="XMLID_1123_" fill="#FF0000" points="128,22.973 123.05,18.021 121.912,18.021 128,24.109 		"/>
		<polygon id="XMLID_1124_" fill="#FF0000" points="128,20.698 125.324,18.021 124.187,18.021 128,21.835 		"/>
		<polygon id="XMLID_1125_" fill="#FF0000" points="128,18.423 127.598,18.021 126.461,18.021 128,19.561 		"/>
	</g>
</g>
</svg>
