<?xml version="1.0" encoding="utf-8"?>
<!-- Generator: Adobe Illustrator 16.0.0, SVG Export Plug-In . SVG Version: 6.00 Build 0)  -->
<!DOCTYPE svg PUBLIC "-//W3C//DTD SVG 1.1//EN" "http://www.w3.org/Graphics/SVG/1.1/DTD/svg11.dtd">
<svg version="1.1" id="Calque_1" xmlns="http://www.w3.org/2000/svg" xmlns:xlink="http://www.w3.org/1999/xlink" x="0px" y="0px"
	 width="1024px" height="32px" viewBox="0 0 1024 32" enable-background="new 0 0 1024 32" xml:space="preserve">
<path fill="none" stroke="#FF0000" stroke-width="0.995" stroke-miterlimit="5" d="M23.082,7.939h-4.746
	c-1.065,0-1.93,0.779-1.93,1.74v15.663c0,0.962,0.863,1.74,1.93,1.74h11.498c1.066,0,1.931-0.778,1.931-1.74v-7.996"/>
<path fill="none" stroke="#FF0000" stroke-linecap="round" stroke-linejoin="round" stroke-miterlimit="5" d="M27.523,9.471v6.035
	 M30.525,12.488h-6.004 M131.044,18.435v4.215 M133.14,20.542h-4.193"/>
<path fill="#FF0000" d="M98.494,19.631c0,0.28-0.049,0.555-0.147,0.823c-0.099,0.268-0.239,0.493-0.421,0.676
	c-0.25,0.247-0.529,0.433-0.836,0.561c-0.307,0.126-0.689,0.188-1.146,0.188h-1.008v2.042H93.32v-6.269h2.66
	c0.398,0,0.734,0.033,1.008,0.103c0.274,0.069,0.517,0.172,0.727,0.311c0.253,0.165,0.445,0.377,0.579,0.635
	C98.426,18.959,98.494,19.269,98.494,19.631L98.494,19.631z M96.822,19.667c0-0.177-0.047-0.329-0.144-0.456
	c-0.095-0.127-0.206-0.216-0.332-0.267c-0.169-0.067-0.333-0.104-0.493-0.111s-0.373-0.011-0.64-0.011h-0.278v1.874H95.4
	c0.274,0,0.5-0.018,0.678-0.052c0.18-0.032,0.328-0.1,0.449-0.2c0.104-0.091,0.18-0.197,0.226-0.321
	C96.798,19.998,96.822,19.846,96.822,19.667L96.822,19.667z"/>
<path fill="#FF0000" d="M105.562,20.793c0,0.584-0.133,1.106-0.4,1.568c-0.267,0.462-0.604,0.815-1.01,1.063
	c-0.306,0.186-0.642,0.314-1.007,0.387c-0.364,0.073-0.797,0.11-1.296,0.11h-2.211v-6.269h2.273c0.511,0,0.951,0.043,1.322,0.128
	c0.371,0.086,0.682,0.207,0.935,0.364c0.433,0.264,0.772,0.619,1.021,1.067C105.439,19.66,105.562,20.186,105.562,20.793
	L105.562,20.793z M103.89,20.78c0-0.412-0.074-0.766-0.225-1.06c-0.15-0.293-0.389-0.521-0.713-0.688
	c-0.166-0.081-0.336-0.138-0.508-0.166c-0.172-0.03-0.434-0.045-0.781-0.045h-0.408v3.924h0.408c0.385,0,0.666-0.018,0.847-0.052
	c0.179-0.035,0.354-0.1,0.526-0.192c0.293-0.168,0.511-0.394,0.647-0.676C103.822,21.544,103.89,21.196,103.89,20.78L103.89,20.78z"
	/>
<polygon fill="#FF0000" points="111.289,18.865 108.404,18.865 108.404,20.031 111.078,20.031 111.078,21.243 108.404,21.243 
	108.404,23.921 106.795,23.921 106.795,17.652 111.289,17.652 111.289,18.865 "/>
<path fill="none" stroke="#FF0000" stroke-miterlimit="10" d="M139.336,20.71c1.144,4.014,4.829,6.956,9.21,6.956
	c5.292,0,9.583-4.29,9.583-9.583c0-5.292-4.291-9.583-9.583-9.583c-2.348,0-4.496,0.848-6.163,2.249"/>
<path fill="none" stroke="#FF0000" stroke-linecap="round" stroke-linejoin="round" stroke-miterlimit="10" d="M143.882,6.225
	c-0.018,0.026-0.039,0.049-0.051,0.08l-1.625,4.062c-0.084,0.208,0.018,0.442,0.225,0.526l4.063,1.625
	c0.029,0.012,0.062,0.012,0.093,0.017 M169.84,13.736l1.416,11.059 M174.625,13.736v11.059 M179.546,13.736l-1.323,11.059"/>
<path fill="none" stroke="#FF0000" stroke-miterlimit="10" d="M183.529,10.568h0.569c0.204,0,0.369-0.166,0.369-0.369V8.538
	c0-0.204-0.165-0.369-0.369-0.369h-18.95c-0.203,0-0.369,0.165-0.369,0.369v1.661c0,0.203,0.166,0.369,0.369,0.369h0.432
	 M176.792,8.031V7.2c0-0.204-0.165-1.369-0.369-1.369h-3.6c-0.203,0-0.369,1.165-0.369,1.369v0.831c0,0.046,0.011,0.091,0.027,0.138
	h4.283C176.781,8.122,176.792,8.077,176.792,8.031L176.792,8.031z"/>
<path fill="none" stroke="#FF0000" stroke-linecap="round" stroke-linejoin="round" stroke-miterlimit="10" d="M166.302,26.917
	c0,0.204,0.165,0.369,0.369,0.369h15.766c0.204,0,0.369-0.165,0.369-0.369l0.723-16.349H165.58L166.302,26.917L166.302,26.917z"/>
<line fill="none" stroke="#FF0000" stroke-miterlimit="10" x1="165.58" y1="10.568" x2="183.529" y2="10.568"/>
<path fill="none" stroke="#FF0000" stroke-linecap="round" stroke-linejoin="round" stroke-miterlimit="10" d="M223.197,19.54
	l-11.129-9.563c-0.009,0.039-0.024,0.073-0.024,0.113v15.392c0,0.29,0.26,0.526,0.581,0.526h21.967c0.322,0,0.582-0.236,0.582-0.526
	V10.09c0-0.04-0.016-0.074-0.025-0.113L224.02,19.54C223.792,19.735,223.424,19.735,223.197,19.54L223.197,19.54z"/>
<path fill="none" stroke="#FF0000" stroke-width="0.5" stroke-linecap="round" stroke-linejoin="round" stroke-miterlimit="10" d="
	M212.068,9.979c0.06-0.236,0.279-0.416,0.557-0.416h21.967c0.277,0,0.499,0.18,0.557,0.416"/>
<path fill="none" stroke="#FF0000" stroke-linecap="round" stroke-linejoin="round" stroke-miterlimit="10" d="M234.591,9.563
	h-21.967c-0.277,0-0.498,0.18-0.557,0.416l11.129,9.563c0.228,0.195,0.596,0.195,0.822,0l11.129-9.563
	C235.089,9.742,234.869,9.563,234.591,9.563L234.591,9.563z M226.728,17.322l7.174,8.564 M221.179,17.807l-6.77,8.08 M268.16,10.37
	h16 M268.16,12.848h16 M268.16,15.434h16 M268.16,18.068h16 M268.16,20.448h16 M268.16,22.926h16 M264.16,10.37h1.129
	 M264.16,12.848h1.129 M264.16,15.434h1.129 M264.16,18.068h1.129 M264.16,20.448h1.129 M264.16,22.926h1.129 M295.547,11.777
	h13.696 M297.41,14.255h11.834 M298.511,16.84h10.732 M298.511,19.476h10.732 M297.41,21.855h11.834 M295.547,24.333h13.696
	 M296.475,17.702l-7.526-7.528v15.762l7.526-7.526C296.67,18.214,296.67,17.896,296.475,17.702L296.475,17.702z M327.644,24.334
	l-13.695-0.001 M325.781,21.855h-11.832 M324.68,19.271h-10.731 M324.68,16.635h-10.731 M325.781,14.255h-11.832 M327.644,11.777
	h-13.695 M326.717,18.408l7.526,7.527V10.174l-7.526,7.527C326.521,17.896,326.521,18.213,326.717,18.408L326.717,18.408z"/>
<path fill="none" stroke="#FF0000" stroke-miterlimit="10" d="M355.865,26.417c-0.275,0-0.551-0.113-0.748-0.337l-5.451-6.146
	c-0.367-0.413-0.329-1.045,0.084-1.41c0.412-0.367,1.045-0.33,1.412,0.085l5.451,6.146c0.367,0.413,0.328,1.045-0.084,1.411
	C356.338,26.334,356.101,26.417,355.865,26.417L355.865,26.417z"/>
<path fill="none" stroke="#FF0000" stroke-linecap="round" stroke-linejoin="round" stroke-miterlimit="10" d="M391.468,10.578
	l6.063,6.047l0.084,8.557l4.416,2.363v-10.92l5.813-6.047H391.468L391.468,10.578z M419.906,27c0,0.276-0.224,0.5-0.5,0.5h-1.5
	c-0.275,0-0.5-0.224-0.5-0.5V8c0-0.275,0.225-0.5,0.5-0.5h1.5c0.276,0,0.5,0.225,0.5,0.5V27L419.906,27z M425.156,27
	c0,0.276-0.224,0.5-0.5,0.5h-1.5c-0.275,0-0.5-0.224-0.5-0.5V8c0-0.275,0.225-0.5,0.5-0.5h1.5c0.276,0,0.5,0.225,0.5,0.5V27
	L425.156,27z M430.406,27c0,0.276-0.224,0.5-0.5,0.5h-1.5c-0.275,0-0.5-0.224-0.5-0.5V8c0-0.275,0.225-0.5,0.5-0.5h1.5
	c0.276,0,0.5,0.225,0.5,0.5V27L430.406,27z M456.06,9.566c0,0.181-0.146,0.328-0.328,0.328h-13.844
	c-0.182,0-0.328-0.147-0.328-0.328V7.63c0-0.181,0.146-0.328,0.328-0.328h13.844c0.182,0,0.328,0.147,0.328,0.328V9.566
	L456.06,9.566z M456.06,27.055c0,0.183-0.146,0.328-0.328,0.328h-13.844c-0.182,0-0.328-0.146-0.328-0.328v-1.937
	c0-0.181,0.146-0.328,0.328-0.328h13.844c0.182,0,0.328,0.147,0.328,0.328V27.055L456.06,27.055z M443.174,9.895v2.742
	c0,0-0.082,0.602,0.875,1.396c0.958,0.793,2.817,2.271,2.817,2.271s0.521,0.411,0.521,1.013c0,0.603-0.493,0.984-0.493,0.984
	l-3.064,2.544c0,0-0.633,0.246-0.657,1.204c-0.026,0.958,0,2.742,0,2.742 M454.029,9.895v2.742c0,0,0.082,0.602-0.875,1.396
	c-0.959,0.793-2.818,2.271-2.818,2.271s-0.52,0.411-0.52,1.013c0,0.603,0.491,0.984,0.491,0.984l3.063,2.544
	c0,0,0.634,0.246,0.658,1.204c0.026,0.958,0,2.742,0,2.742"/>
<polygon fill="#FF0000" points="445.853,23.073 451.85,23.073 448.851,20.57 445.853,23.073 "/>
<polygon fill="#FF0000" points="444.789,11.6 452.449,11.6 452.449,12.43 448.619,15.561 444.789,12.43 444.789,11.6 "/>
<path fill="none" stroke="#FF0000" stroke-linecap="round" stroke-linejoin="round" stroke-miterlimit="10" d="M468.859,20.584
	l8.383-8.098c0,0-1.528-4.936,3.957-4.778l-2.154,2.114l0.705,1.96l1.919,0.704l2.116-1.94c0,0,0.744,4.604-4.584,3.86l-8.344,8.266
	c0,0,1.539,4.896-3.957,4.66l2.039-2.115l-0.705-1.88l-1.881-0.665l-2.154,2.035C464.197,24.708,463.57,19.905,468.859,20.584
	L468.859,20.584z M503.719,8.5v16.188l-11-8.188L503.719,8.5L503.719,8.5z M519.567,8.5v16.188l11-8.188L519.567,8.5L519.567,8.5z
	 M579.476,22.232v-9.277l-6.305,4.692L579.476,22.232L579.476,22.232z M731.255,13.572v6.519l4.43-3.298L731.255,13.572
	L731.255,13.572z M594.205,23.135h9.277l-4.692-6.305L594.205,23.135L594.205,23.135z M541.789,16.882l-2.508,2.726l7.904,7.358
	l12.101-17.444l-3.488-1.744l-9.159,14.229L541.789,16.882L541.789,16.882z"/>
<path fill="none" stroke="#FF0000" stroke-miterlimit="10" d="M409.281,8c0-0.275-0.225-0.5-0.5-0.5h-18.363
	c-0.275,0-0.499,0.225-0.499,0.5v2.078c0,0.275,0.224,0.5,0.499,0.5h18.363c0.275,0,0.5-0.225,0.5-0.5V8L409.281,8z M569.156,27
	c0,0.276-0.224,0.5-0.5,0.5h-3.625c-0.276,0-0.5-0.224-0.5-0.5V8c0-0.275,0.224-0.5,0.5-0.5h3.625c0.276,0,0.5,0.225,0.5,0.5V27
	L569.156,27z M589.343,12.125c-0.275,0-0.5-0.225-0.5-0.5V8c0-0.275,0.225-0.5,0.5-0.5h19c0.276,0,0.5,0.225,0.5,0.5v3.625
	c0,0.275-0.224,0.5-0.5,0.5H589.343L589.343,12.125z"/>
<path fill="#FF0000" d="M655.995,14.848h-1.031v-2.576c0-0.233-0.188-0.424-0.423-0.424h-4.072v1.27h3.229v1.729h-1.083
	l-0.224,0.264l1.914,2.235l1.93-2.235L655.995,14.848L655.995,14.848z M650.735,17.693v2.689l0.973,0.953l2.353-2.301l-2.348-2.301
	L650.735,17.693L650.735,17.693z"/>
<polygon fill="none" stroke="#FF0000" stroke-miterlimit="10" points="650.735,6.141 640.164,7.993 640.164,25.336 650.735,27.189 
	650.735,6.141 "/>
<path fill="#FF0000" d="M644.392,16.275v-2.271h0.593c0.17-0.01,0.342,0.007,0.507,0.052c0.137,0.036,0.263,0.106,0.367,0.201
	c0.104,0.098,0.181,0.219,0.225,0.352c0.053,0.162,0.078,0.332,0.076,0.504c0.001,0.169-0.025,0.336-0.076,0.494
	c-0.088,0.281-0.31,0.502-0.592,0.588c-0.164,0.052-0.336,0.076-0.507,0.072h-0.563 M645.238,12.693l-2.114,0.123v7.188l1.269,0.076
	V17.52h0.715c0.186,0.007,0.371-0.002,0.555-0.025c0.175-0.025,0.35-0.067,0.516-0.126c0.161-0.058,0.315-0.131,0.461-0.222
	c0.151-0.089,0.295-0.194,0.423-0.316c0.116-0.115,0.222-0.24,0.313-0.376c0.089-0.134,0.164-0.274,0.225-0.423
	c0.062-0.156,0.105-0.32,0.136-0.486c0.088-0.535,0.048-1.082-0.119-1.598c-0.097-0.282-0.265-0.536-0.485-0.736
	c-0.229-0.202-0.503-0.348-0.799-0.423C645.972,12.699,645.605,12.668,645.238,12.693"/>
<path fill="none" stroke="#FF0000" stroke-miterlimit="10" d="M650.735,25.075h6.343c0.467,0,0.846-0.379,0.846-0.848V9.1
	c0-0.467-0.379-0.846-0.846-0.846h-6.343 M674.126,10.876c-4.406,0-8.253,2.396-10.313,5.954c2.06,3.559,5.904,5.955,10.313,5.955
	s8.253-2.396,10.313-5.955C682.379,13.271,678.534,10.876,674.126,10.876L674.126,10.876z M677.419,20.125
	c-0.843,0.844-2.009,1.363-3.293,1.363c-2.572,0-4.656-2.087-4.656-4.656c0-1.941,1.188-3.605,2.878-4.305
	c0.546-0.229,1.147-0.354,1.778-0.354c2.573,0,4.657,2.086,4.657,4.658C678.784,18.117,678.263,19.281,677.419,20.125
	 M674.126,14.757c1.146,0,2.074,0.929,2.074,2.074c0,1.145-0.929,2.074-2.074,2.074c-1.145,0-2.074-0.93-2.074-2.074
	C672.052,15.686,672.982,14.757,674.126,14.757L674.126,14.757z M695.747,9.266V7.381c0-0.047-0.037-0.084-0.085-0.084h-1.931
	c-0.046,0-0.084,0.038-0.084,0.084v1.885 M705.531,9.266V7.381c0-0.047-0.038-0.084-0.085-0.084h-1.931
	c-0.047,0-0.086,0.038-0.086,0.084v1.885 M708.571,9.266h-3.04v1.883c0,0.045-0.038,0.084-0.085,0.084h-1.931
	c-0.047,0-0.086-0.039-0.086-0.084V9.266h-7.684v1.883c0,0.045-0.037,0.084-0.085,0.084h-1.93c-0.046,0-0.084-0.039-0.084-0.084
	V9.266h-3.268c-0.047,0-0.085,0.037-0.085,0.084V27.23c0,0.048,0.038,0.085,0.085,0.085h18.19c0.047,0,0.085-0.037,0.085-0.085V9.35
	C708.656,9.302,708.618,9.266,708.571,9.266L708.571,9.266z M703.429,9.266v1.883c0,0.045,0.039,0.084,0.086,0.084h1.931
	c0.047,0,0.085-0.039,0.085-0.084V9.266 M690.295,14.788h18.148 M723.817,8.563c0,0,3.978-2.056,4.149-2.018
	c0.491,0.107,0.458,0.458,0.458,0.458v19.292c0,0,0.095,0.917-0.333,0.833c-1.623-0.317-4.274-1.065-4.274-1.065"/>
<path fill-rule="evenodd" clip-rule="evenodd" fill="#FF0000" d="M722.614,10.249c1.141,0,2.067,0.926,2.067,2.067
	c0,1.141-0.927,2.066-2.067,2.066s-2.067-0.926-2.067-2.066C720.546,11.175,721.473,10.249,722.614,10.249L722.614,10.249z"/>
<path fill="#FF0000" d="M715.92,20.215l2.749-4.867c0,0-0.492-1.303-1.101,0c-0.55,1.18-0.958,1.068-0.958,1.068
	s-1.2,0.306-0.69-1.063c0.564-1.511,1.176-2.361,1.176-2.361l3.419,0.628c0,0,0.472,0.864,1.296,1.06l1.146,1.768l1.325-0.825
	c0,0,0.824-0.078,0.942,0.628c0.116,0.707-0.007,0.864-0.2,0.982c-0.192,0.116-2.234,1.021-2.234,1.021s-0.941,0.628-1.529-0.668
	l-1.375,1.964l1.53,1.334l-1.452,3.926c0,0-0.707,0.511-1.178,0.313c-0.472-0.195-0.432-0.666-0.393-1.099s0.902-2.708,0.902-2.708
	l-1.336-1.14l-1.059,2.041c0,0-0.369,0.824-1.383,0.274c-1.014-0.549-2.19-1.1-2.19-1.1s-0.51-0.511-0.313-1.139
	c0.194-0.628,0.706-0.706,1.178-0.472C714.665,20.02,715.92,20.215,715.92,20.215L715.92,20.215z"/>
<path fill="none" stroke="#FF0000" stroke-linecap="round" stroke-linejoin="round" stroke-miterlimit="10" d="M800.906,11.697
	c0,0.275-0.224,0.5-0.5,0.5h-3.375c-0.276,0-0.5-0.225-0.5-0.5V8.322c0-0.276,0.224-0.5,0.5-0.5h3.375c0.276,0,0.5,0.224,0.5,0.5
	V11.697L800.906,11.697z M800.906,19.219c0,0.276-0.224,0.5-0.5,0.5h-3.375c-0.276,0-0.5-0.224-0.5-0.5v-3.375
	c0-0.275,0.224-0.5,0.5-0.5h3.375c0.276,0,0.5,0.225,0.5,0.5V19.219L800.906,19.219z M800.906,26.457c0,0.276-0.224,0.5-0.5,0.5
	h-3.375c-0.276,0-0.5-0.224-0.5-0.5v-3.375c0-0.276,0.224-0.5,0.5-0.5h3.375c0.276,0,0.5,0.224,0.5,0.5V26.457L800.906,26.457z"/>
<path fill="none" stroke="#FF0000" stroke-miterlimit="10" d="M840.943,19.704c1.71,0,3.098,1.388,3.098,3.098
	s-1.388,3.099-3.098,3.099s-3.098-1.389-3.098-3.099S839.233,19.704,840.943,19.704L840.943,19.704z M838.907,10.555l0.278-3.385
	c0,0,7.433-0.771,12.798,4.594c5.365,5.362,4.888,13.012,4.888,13.012l-3.427,0.316c0,0,0.917-6.013-3.822-10.753
	C844.881,9.6,838.907,10.555,838.907,10.555L838.907,10.555z M847.509,16.451c0,0,3.418,2.399,3.321,8.787l-3.129-0.059
	c0,0-0.053-4.168-2.382-6.499c-2.33-2.329-6.499-2.382-6.499-2.382l-0.059-3.129C838.762,13.17,843.487,12.428,847.509,16.451
	L847.509,16.451z M865.229,19.704c1.71,0,3.098,1.388,3.098,3.098s-1.388,3.099-3.098,3.099s-3.099-1.389-3.099-3.099
	S863.519,19.704,865.229,19.704L865.229,19.704z M871.795,16.451c0,0,3.417,2.399,3.321,8.787l-3.129-0.059
	c0,0-0.053-4.168-2.382-6.499c-2.33-2.329-6.499-2.382-6.499-2.382l-0.06-3.129C863.048,13.17,867.773,12.428,871.795,16.451
	L871.795,16.451z M876.368,17.39c-0.034,0-0.069-0.001-0.104-0.003c-0.032-0.002-0.063-0.014-0.098-0.017
	c2.132,3.934,1.564,7.723,1.564,7.723l3.427-0.316c0,0,0.282-4.729-2.2-9.357l-1.059,1.259
	C877.517,17.13,876.957,17.39,876.368,17.39L876.368,17.39z M871.018,8.361c-3.979-1.559-7.547-1.19-7.547-1.19l-0.278,3.386
	c0,0,4.76-0.75,9.154,2.459l-1.495-2.209C870.329,10.032,870.425,9.027,871.018,8.361L871.018,8.361z M876.547,12.068
	c-0.016-0.017-0.029-0.033-0.046-0.049l0.039,0.057L876.547,12.068L876.547,12.068z M876.269,11.764
	c0.083,0.084,0.151,0.172,0.231,0.256l-2.337-3.457c-0.618-0.914-1.863-1.152-2.775-0.535c-0.143,0.096-0.263,0.211-0.37,0.332
	 M878.957,15.418l5.576-6.63c0.711-0.845,0.604-2.106-0.243-2.817c-0.846-0.713-2.105-0.603-2.816,0.243l-4.926,5.854
	 M872.347,13.014l2.363,3.496c0.332,0.492,0.867,0.801,1.454,0.86 M876.547,12.068l-0.007,0.008l-0.039-0.057
	c-0.08-0.084-0.148-0.172-0.231-0.256 M876.166,17.37c0.033,0.003,0.064,0.015,0.098,0.017c0.035,0.002,0.07,0.003,0.104,0.003
	c0.589,0,1.149-0.26,1.53-0.713l1.059-1.259 M871.018,8.361c-0.594,0.666-0.689,1.671-0.166,2.443l1.495,2.209 M698.914,24.776
	c-0.256,0-0.503-0.099-0.689-0.276l-3.167-3.021c-0.399-0.381-0.414-1.014-0.033-1.413c0.382-0.398,1.014-0.414,1.414-0.033
	l2.326,2.219l4.091-5.826c0.315-0.452,0.939-0.562,1.393-0.243c0.452,0.316,0.563,0.94,0.244,1.393l-4.759,6.775
	c-0.167,0.239-0.431,0.394-0.72,0.421C698.979,24.774,698.946,24.776,698.914,24.776L698.914,24.776z M822.121,22.896
	c-0.327,0-0.644-0.124-0.884-0.354l-4.051-3.864c-0.513-0.486-0.53-1.297-0.043-1.81c0.487-0.509,1.297-0.529,1.809-0.042
	l2.978,2.839l5.232-7.454c0.405-0.578,1.203-0.717,1.781-0.313c0.579,0.406,0.719,1.205,0.313,1.783l-6.088,8.668
	c-0.214,0.308-0.551,0.503-0.921,0.539C822.205,22.894,822.162,22.896,822.121,22.896L822.121,22.896z M823.139,7.282
	c5.519,0,9.999,4.481,9.999,10s-4.48,10-9.999,10c-5.52,0-10-4.481-10-10S817.62,7.282,823.139,7.282L823.139,7.282z
	 M778.468,24.197c-0.205,0-0.404-0.078-0.557-0.224l-2.549-2.431c-0.321-0.307-0.333-0.816-0.026-1.139
	c0.308-0.32,0.815-0.333,1.139-0.026l1.873,1.786l3.293-4.69c0.255-0.362,0.757-0.45,1.12-0.194
	c0.363,0.255,0.451,0.758,0.196,1.121l-3.831,5.453c-0.135,0.193-0.347,0.316-0.579,0.34
	C778.521,24.195,778.494,24.197,778.468,24.197L778.468,24.197z M779.109,14.373c-3.475,0-6.292,2.816-6.292,6.292
	c0,3.475,2.817,6.292,6.292,6.292c2.723,0,5.035-1.733,5.911-4.154 M785.02,22.803c0.241-0.668,0.381-1.386,0.381-2.138
	c0-3.476-2.817-6.292-6.292-6.292 M745.615,13.572h6.084 M745.615,16.831h10 M746.449,21v4.167 M748.657,25.167v-2.083
	 M750.615,25.167v-3.5 M752.532,25.167v-5.076 M754.282,25.167v-1.75 M756.032,25.167v-3.5"/>
<path fill="none" stroke="#FF0000" stroke-linecap="round" stroke-linejoin="round" stroke-miterlimit="10" d="M755.282,10V7.282
	h-12.084c-0.276,0-0.5,0.206-0.5,0.459v19.082c0,0.254,0.224,0.459,0.5,0.459h14.833c0.276,0,0.5-0.205,0.5-0.459V10.5h-2.749
	C755.505,10.5,755.282,10.275,755.282,10L755.282,10z M755.282,7.282l3.249,3.218 M980.282,10V7.282h-12.084
	c-0.276,0-0.5,0.206-0.5,0.459v19.082c0,0.254,0.224,0.459,0.5,0.459h14.833c0.276,0,0.5-0.205,0.5-0.459V10.5h-2.749
	C980.505,10.5,980.282,10.275,980.282,10L980.282,10z M980.282,7.282l3.249,3.218 M940.156,12.232h16.875l-8.438,9.561
	L940.156,12.232L940.156,12.232z M959.906,27c0,0.276-0.224,0.5-0.5,0.5h-21.25c-0.276,0-0.5-0.224-0.5-0.5v-2.375
	c0-0.276,0.224-0.5,0.5-0.5h21.25c0.276,0,0.5,0.224,0.5,0.5V27L959.906,27z"/>
<path fill="none" stroke="#FF0000" stroke-width="0.567" stroke-miterlimit="10" d="M900.406,26.901h-1.432
	c-3.489-0.639-6.986-1.223-10.483-1.833c-0.002-5.35,0-11.696,0-17.041c3.515-0.614,11.915-1.838,11.915-1.838V26.901
	L900.406,26.901z M900.406,25.075V8.036h7.354c0.522-0.054,0.933,0.353,0.885,0.875c0.039,4.516-0.01,10.034,0.022,14.549
	c-0.022,0.463,0.045,0.977-0.223,1.389c-0.334,0.236-0.769,0.208-1.157,0.227H900.406L900.406,25.075z"/>
<path fill="none" stroke="#FF0000" stroke-width="0.183" stroke-miterlimit="10" d="M900.406,13.377c0-0.382,0-0.764,0-1.146
	 M900.406,15.439c0-0.381,0-0.763,0-1.146 M900.406,17.504c0-0.383,0-0.763,0-1.146 M900.406,19.567c0-0.384,0-0.765,0-1.146
	 M900.406,21.631c0-0.384,0-0.764,0-1.146"/>
<path fill="#FF0000" d="M893.227,13.76c0.435-0.023,0.871-0.043,1.306-0.064c0.306,1.546,0.617,3.091,0.946,4.633
	c0.261-1.593,0.547-3.18,0.823-4.768c0.459-0.017,0.916-0.041,1.372-0.067c-0.518,2.221-0.972,4.46-1.536,6.667
	c-0.384,0.199-0.956-0.009-1.41,0.021c-0.306-1.517-0.66-3.025-0.935-4.549c-0.268,1.482-0.616,2.949-0.923,4.421
	c-0.439-0.023-0.883-0.051-1.325-0.082c-0.38-2.017-0.827-4.021-1.183-6.042c0.392-0.019,0.786-0.033,1.179-0.049
	c0.235,1.46,0.504,2.914,0.711,4.377C892.577,16.759,892.906,15.26,893.227,13.76L893.227,13.76z"/>
<path fill="none" stroke="#FF0000" stroke-width="0.542" stroke-miterlimit="10" d="M901.53,11.105h5.995 M901.53,12.805h5.995
	 M901.53,14.591h5.995 M901.53,16.289h5.995 M901.53,18.146h5.995 M901.53,19.843h5.995 M901.53,21.411h5.995 M901.53,22.937h5.995"
	/>
<path fill="none" stroke="#FF0000" stroke-width="0.312" stroke-miterlimit="10" d="M925.888,24.878h7.121
	c0.525,0,0.95-0.425,0.95-0.949V9.16c0-0.524-0.425-0.949-0.95-0.949h-7.121V24.878L925.888,24.878z"/>
<polygon fill-rule="evenodd" clip-rule="evenodd" fill="#FF0000" points="931.585,11.584 928.263,11.584 928.263,13.008 
	931.585,13.008 931.585,11.584 "/>
<polygon fill-rule="evenodd" clip-rule="evenodd" fill="#FF0000" points="931.585,13.958 928.263,13.958 928.263,15.383 
	931.585,15.383 931.585,13.958 "/>
<polygon fill-rule="evenodd" clip-rule="evenodd" fill="#FF0000" points="931.585,16.333 928.263,16.333 928.263,17.758 
	931.585,17.758 931.585,16.333 "/>
<polygon fill-rule="evenodd" clip-rule="evenodd" fill="#FF0000" points="931.585,18.707 928.263,18.707 928.263,20.131 
	931.585,20.131 931.585,18.707 "/>
<polygon fill-rule="evenodd" clip-rule="evenodd" fill="#FF0000" points="931.585,21.08 928.263,21.08 928.263,22.505 
	931.585,22.505 931.585,21.08 "/>
<polygon fill-rule="evenodd" clip-rule="evenodd" fill="#FF0000" points="927.313,11.584 925.888,11.584 925.888,13.008 
	927.313,13.008 927.313,11.584 "/>
<polygon fill-rule="evenodd" clip-rule="evenodd" fill="#FF0000" points="927.313,13.958 925.888,13.958 925.888,15.383 
	927.313,15.383 927.313,13.958 "/>
<polygon fill-rule="evenodd" clip-rule="evenodd" fill="#FF0000" points="927.313,16.333 925.888,16.333 925.888,17.758 
	927.313,17.758 927.313,16.333 "/>
<polygon fill-rule="evenodd" clip-rule="evenodd" fill="#FF0000" points="927.313,18.707 925.888,18.707 925.888,20.131 
	927.313,20.131 927.313,18.707 "/>
<polygon fill-rule="evenodd" clip-rule="evenodd" fill="#FF0000" points="927.313,21.08 925.888,21.08 925.888,22.505 
	927.313,22.505 927.313,21.08 "/>
<polygon fill="none" stroke="#FF0000" stroke-width="0.312" stroke-miterlimit="10" points="925.888,6.313 914.019,8.393 
	914.019,25.174 925.888,27.254 925.888,6.313 "/>
<path fill="#FF0000" d="M922.499,13.009l-1.655,0.101l-1.013,2.373l-0.064,0.215l-0.05,0.16l-0.043,0.156l-0.033,0.129
	c0-0.063-0.015-0.125-0.042-0.182l-0.044-0.166l-0.049-0.156l-0.052-0.144l-0.868-2.254l-1.6,0.099l1.705,3.693l-1.885,3.693
	l1.562,0.096l1.049-2.421l0.048-0.167l0.038-0.147l0.034-0.123v-0.1l0.033,0.175l0.033,0.146l0.028,0.114l0.028,0.081l1.093,2.582
	l1.813,0.114l-2.042-4.068L922.499,13.009"/>
<path fill="none" stroke="#FF0000" stroke-miterlimit="10" d="M27.523,6.05c3.553,0,6.438,2.886,6.438,6.438
	s-2.886,6.438-6.438,6.438s-6.438-2.885-6.438-6.438S23.97,6.05,27.523,6.05L27.523,6.05z M58.193,26.5c0,0.552-0.447,1-1,1H40.732
	c-0.552,0-1-0.448-1-1V8.438c0-0.553,0.448-1,1-1h16.461c0.553,0,1,0.447,1,1V26.5L58.193,26.5z"/>
<path fill="none" stroke="#FF0000" stroke-width="0.931" stroke-miterlimit="10" d="M54.701,26.438c0,0.588-0.364,1.063-0.814,1.063
	h-9.2c-0.45,0-0.815-0.476-0.815-1.063V19.99c0-0.588,0.365-1.063,0.815-1.063h9.2c0.45,0,0.814,0.477,0.814,1.063V26.438
	L54.701,26.438z"/>
<path fill="none" stroke="#FF0000" stroke-width="0.867" stroke-miterlimit="10" d="M54.701,12.845c0,0.487-0.381,0.882-0.854,0.882
	h-6.865c-0.471,0-0.854-0.396-0.854-0.882V8.336c0-0.486,0.382-0.881,0.854-0.881h6.865c0.473,0,0.854,0.395,0.854,0.881V12.845
	L54.701,12.845z"/>
<path fill="none" stroke="#FF0000" stroke-miterlimit="10" d="M260.715,26.301c0,0.392-0.315,0.706-0.706,0.706h-11.618
	c-0.39,0-0.706-0.314-0.706-0.706V13.555c0-0.391,0.316-0.707,0.706-0.707h11.618c0.391,0,0.706,0.316,0.706,0.707V26.301
	L260.715,26.301z M248.391,12.848h1.67V7.037c0-0.391-0.315-0.706-0.706-0.706h-11.617c-0.391,0-0.707,0.315-0.707,0.706v12.747
	c0,0.391,0.316,0.706,0.707,0.706h2.791c-0.318,0-0.576-0.335-0.576-0.75v-4.551c0-0.414,0.258-0.752,0.576-0.752h6.492
	c0.317,0,0.575,0.338,0.575,0.752v4.551c0,0.415-0.257,0.75-0.575,0.75h0.664v-6.938C247.685,13.164,248.001,12.848,248.391,12.848
	L248.391,12.848z M247.596,10.146c0,0.344-0.269,0.623-0.603,0.623h-4.844c-0.334,0-0.603-0.279-0.603-0.623V6.965
	c0-0.343,0.271-0.622,0.603-0.622h4.844c0.334,0,0.603,0.279,0.603,0.622V10.146L247.596,10.146z M247.596,19.74v-4.551
	c0-0.414-0.257-0.752-0.575-0.752h-6.492c-0.318,0-0.576,0.338-0.576,0.752v4.551c0,0.415,0.258,0.75,0.576,0.75h6.492
	C247.339,20.49,247.596,20.155,247.596,19.74L247.596,19.74z M246.994,6.343h-4.844c-0.334,0-0.603,0.279-0.603,0.622v3.184
	c0,0.343,0.271,0.621,0.603,0.621h4.844c0.334,0,0.603-0.278,0.603-0.621V6.965C247.596,6.622,247.328,6.343,246.994,6.343
	L246.994,6.343z"/>
<path fill="none" stroke="#FF0000" stroke-width="0.931" stroke-miterlimit="10" d="M258.25,26.257c0,0.415-0.256,0.75-0.574,0.75
	h-6.493c-0.317,0-0.575-0.335-0.575-0.75v-4.551c0-0.414,0.258-0.751,0.575-0.751h6.493c0.316,0,0.574,0.337,0.574,0.751V26.257
	L258.25,26.257z"/>
<path fill="none" stroke="#FF0000" stroke-width="0.867" stroke-miterlimit="10" d="M258.25,16.664c0,0.343-0.268,0.622-0.602,0.622
	h-4.845c-0.333,0-0.603-0.279-0.603-0.622V13.48c0-0.342,0.271-0.621,0.603-0.621h4.845c0.334,0,0.602,0.279,0.602,0.621V16.664
	L258.25,16.664z"/>
<path fill="none" stroke="#FF0000" stroke-width="0.886" stroke-miterlimit="10" d="M67.406,15.729h-3.625c-0.551,0-1,0.447-1,1
	v7.625c0,0.554,0.449,1,1,1h3.625v-3.813c0-0.553,0.448-1,1-1h11.375c0.553,0,1,0.447,1,1v3.813h3.75c0.553,0,1-0.446,1-1v-7.625
	c0-0.553-0.447-1-1-1h-3.75 M67.406,25.354v1.25c0,0.554,0.448,1,1,1h11.375c0.553,0,1-0.446,1-1v-1.25 M80.781,25.354v-3.813
	c0-0.553-0.447-1-1-1H68.406c-0.552,0-1,0.447-1,1v3.813 M80.781,7.729c0-0.553-0.447-1-1-1H68.406c-0.552,0-1,0.447-1,1v8h13.375
	V7.729L80.781,7.729z M69.031,9.379h6.25 M69.031,12.354h9 M66.541,18.047c0,0.485-0.395,0.879-0.879,0.879
	c-0.486,0-0.879-0.394-0.879-0.879c0-0.486,0.394-0.88,0.879-0.88C66.146,17.167,66.541,17.561,66.541,18.047L66.541,18.047z"/>
<path fill="none" stroke="#FF0000" stroke-miterlimit="10" d="M105.156,16.562V6.5c0-0.553-0.447-1-1-1H90.281c-0.551,0-1,0.447-1,1
	v20c0,0.553,0.449,1,1,1h13.875c0.553,0,1-0.447,1-1v-1.146"/>
<path fill="#FF0000" d="M369.529,24.043c-0.467,0-0.896-0.069-1.291-0.206c-0.395-0.138-0.733-0.343-1.018-0.615
	c-0.283-0.271-0.503-0.611-0.658-1.019c-0.156-0.407-0.234-0.877-0.234-1.41c0-0.497,0.074-0.948,0.224-1.352
	c0.149-0.404,0.364-0.751,0.647-1.04c0.273-0.277,0.61-0.492,1.014-0.645c0.402-0.15,0.843-0.227,1.32-0.227
	c0.264,0,0.502,0.015,0.713,0.044s0.408,0.067,0.588,0.116c0.188,0.053,0.357,0.112,0.511,0.179
	c0.153,0.065,0.287,0.127,0.401,0.183v1.521h-0.185c-0.077-0.067-0.177-0.147-0.297-0.239c-0.118-0.092-0.254-0.183-0.405-0.272
	c-0.154-0.09-0.322-0.165-0.502-0.226c-0.18-0.062-0.371-0.093-0.576-0.093c-0.228,0-0.443,0.036-0.648,0.107
	s-0.395,0.189-0.568,0.355c-0.166,0.159-0.3,0.371-0.402,0.634s-0.153,0.583-0.153,0.958c0,0.393,0.056,0.72,0.166,0.983
	c0.11,0.263,0.251,0.471,0.419,0.622c0.171,0.153,0.361,0.264,0.572,0.33c0.211,0.065,0.418,0.098,0.623,0.098
	c0.197,0,0.392-0.029,0.584-0.087c0.191-0.06,0.369-0.14,0.531-0.239c0.139-0.081,0.267-0.168,0.385-0.26
	c0.117-0.092,0.214-0.172,0.289-0.239h0.168v1.499c-0.156,0.07-0.307,0.136-0.449,0.198c-0.143,0.062-0.293,0.115-0.451,0.16
	c-0.204,0.059-0.396,0.104-0.576,0.135S369.842,24.043,369.529,24.043L369.529,24.043z"/>
<path fill="#FF0000" d="M377.953,21.951c0,0.617-0.262,1.119-0.785,1.505s-1.234,0.579-2.133,0.579c-0.52,0-0.971-0.046-1.357-0.137
	c-0.387-0.092-0.748-0.207-1.084-0.349v-1.503h0.176c0.334,0.268,0.708,0.472,1.122,0.615c0.414,0.143,0.812,0.215,1.194,0.215
	c0.098,0,0.227-0.009,0.387-0.025s0.291-0.045,0.393-0.085c0.123-0.05,0.225-0.112,0.305-0.188s0.119-0.188,0.119-0.337
	c0-0.138-0.057-0.256-0.174-0.356c-0.117-0.099-0.287-0.176-0.512-0.229c-0.236-0.057-0.484-0.109-0.746-0.158
	c-0.264-0.049-0.51-0.112-0.74-0.188c-0.527-0.172-0.908-0.403-1.139-0.696c-0.232-0.293-0.347-0.658-0.347-1.094
	c0-0.584,0.261-1.06,0.784-1.429s1.197-0.554,2.02-0.554c0.412,0,0.82,0.04,1.223,0.12s0.752,0.181,1.047,0.301v1.444h-0.174
	c-0.252-0.202-0.562-0.371-0.928-0.508c-0.365-0.136-0.74-0.203-1.121-0.203c-0.136,0-0.27,0.009-0.402,0.026
	c-0.135,0.019-0.262,0.054-0.385,0.104c-0.11,0.043-0.205,0.105-0.283,0.191s-0.117,0.184-0.117,0.293
	c0,0.165,0.063,0.292,0.189,0.381c0.125,0.089,0.364,0.17,0.715,0.242c0.23,0.047,0.451,0.095,0.664,0.14
	c0.211,0.045,0.439,0.105,0.684,0.185c0.48,0.157,0.834,0.371,1.063,0.643C377.838,21.167,377.953,21.518,377.953,21.951
	L377.953,21.951z"/>
<polygon fill="#FF0000" points="384.744,17.652 382.457,23.921 380.648,23.921 378.361,17.652 380.059,17.652 381.574,22.053 
	383.089,17.652 384.744,17.652 "/>
<path fill="none" stroke="#FF0000" stroke-miterlimit="10" d="M378.531,16.562V6.5c0-0.553-0.447-1-1-1h-13.875
	c-0.551,0-1,0.447-1,1v20c0,0.553,0.449,1,1,1h13.875c0.553,0,1-0.447,1-1v-1.146 M131.043,15.688c2.679,0,4.854,2.176,4.854,4.854
	s-2.176,4.854-4.854,4.854s-4.854-2.176-4.854-4.854S128.365,15.688,131.043,15.688L131.043,15.688z M126.191,20.542
	c0-2.682,2.172-4.854,4.854-4.854c0.754,0,1.459,0.188,2.096,0.494V11.75c0-0.553-0.447-1-1-1h-9c-0.552,0-1,0.447-1,1v14.5
	c0,0.553,0.448,1,1,1h9c0.553,0,1-0.447,1-1v-1.348c-0.637,0.307-1.342,0.492-2.096,0.492
	C128.363,25.396,126.191,23.224,126.191,20.542L126.191,20.542z M123.099,10.801h0.842V6.5c0-0.553-0.447-1-1-1h-9
	c-0.552,0-1,0.447-1,1V21c0,0.553,0.448,1,1,1h8.158V11.801C122.099,11.248,122.547,10.801,123.099,10.801L123.099,10.801z"/>
<path fill="none" stroke="#FF0000" stroke-width="0.886" stroke-miterlimit="10" d="M114.691,9.125h6.25 M114.691,11.375h4.242
	 M114.691,13.25h4.242 M114.691,15h4.242 M114.695,16.75h4.242"/>
<path fill="none" stroke="#FF0000" stroke-linecap="round" stroke-linejoin="round" stroke-miterlimit="10" d="M205.142,24.072
	c0,0-2.395,2.35-5.768,2.35c-3.372,0-10.219-1.787-10.219-10.271h-1.733l3.062-4.897l2.861,4.847c0,0-1.209,0-1.533,0
	c0,0-0.408,9.455,7.512,9.455C203.189,25.555,205.142,24.072,205.142,24.072L205.142,24.072z M192.187,9.428
	c0,0,2.395-2.351,5.768-2.351c3.371,0,10.22,1.788,10.22,10.27h1.733l-3.063,4.9l-2.861-4.851c0,0,1.209,0,1.533,0
	c0,0,0.408-9.451-7.512-9.451C194.141,7.947,192.187,9.428,192.187,9.428L192.187,9.428z M345.81,7.479
	c3.34,0,6.051,2.711,6.051,6.051s-2.711,6.051-6.051,6.051s-6.051-2.711-6.051-6.051S342.47,7.479,345.81,7.479L345.81,7.479z"/>
<path fill="none" stroke="#FF0000" stroke-miterlimit="10" d="M778.918,14.373c1.134,0,2.194,0.304,3.112,0.828V8.889
	c0-0.467-0.461-0.845-1.03-0.845h-17.76c-0.569,0-1.03,0.377-1.03,0.845v14.146c0,0.467,0.461,0.844,1.03,0.844h10.274
	c-0.562-0.941-0.89-2.037-0.89-3.212C772.626,17.189,775.444,14.373,778.918,14.373L778.918,14.373z"/>
<path fill="none" stroke="#FF0000" stroke-width="2" stroke-miterlimit="10" d="M762.183,10.876h7.75 M770.015,12.955h5.417
	 M765.234,15.792h5.543 M770.837,17.871h2.64 M761.85,21h9.958"/>
<path fill="none" stroke="#FF0000" stroke-miterlimit="10" d="M634.704,26.366c0,0.308-0.249,0.557-0.557,0.557h-9.166
	c-0.309,0-0.558-0.249-0.558-0.557V16.309c0-0.307,0.249-0.557,0.558-0.557h9.166c0.308,0,0.557,0.25,0.557,0.557V26.366
	L634.704,26.366z M624.36,17.871v-1.46c0-0.322,0.26-0.583,0.582-0.583h6.937V8.889c0-0.467-0.461-0.845-1.029-0.845h-17.761
	c-0.568,0-1.029,0.377-1.029,0.845v14.145c0,0.467,0.461,0.844,1.029,0.844h11.271V17.871"/>
<path fill="none" stroke="#FF0000" stroke-width="0.931" stroke-miterlimit="10" d="M632.759,26.331
	c0,0.327-0.202,0.592-0.453,0.592h-5.122c-0.251,0-0.454-0.265-0.454-0.592v-3.59c0-0.327,0.203-0.593,0.454-0.593h5.122
	c0.251,0,0.453,0.266,0.453,0.593V26.331L632.759,26.331z"/>
<path fill="none" stroke="#FF0000" stroke-width="0.867" stroke-miterlimit="10" d="M632.759,18.763
	c0,0.271-0.213,0.491-0.476,0.491h-3.822c-0.263,0-0.476-0.22-0.476-0.491v-2.511c0-0.271,0.213-0.49,0.476-0.49h3.822
	c0.263,0,0.476,0.221,0.476,0.49V18.763L632.759,18.763z"/>
<path fill="none" stroke="#FF0000" stroke-width="2" stroke-miterlimit="10" d="M612.058,10.502h8.848 M620.906,12.439h4.688
	 M613.705,14.846h4.625 M618.33,17.033h3.844 M612.044,21.063h8.875"/>
<g>
	<path fill="none" stroke="#FF0000" stroke-linecap="round" stroke-linejoin="round" stroke-miterlimit="10" d="M1009.099,24.45
		c0,0-2.395,2.35-5.768,2.35c-3.372,0-10.219-1.787-10.219-10.271h-1.733l3.062-4.897l2.861,4.847c0,0-1.209,0-1.533,0
		c0,0-0.408,9.455,7.512,9.455C1007.146,25.933,1009.099,24.45,1009.099,24.45L1009.099,24.45z"/>
	<path fill="none" stroke="#FF0000" stroke-linecap="round" stroke-linejoin="round" stroke-miterlimit="10" d="M996.144,9.806
		c0,0,2.395-2.351,5.768-2.351c3.371,0,10.22,1.788,10.22,10.27h1.733l-3.063,4.9l-2.861-4.851c0,0,1.209,0,1.533,0
		c0,0,0.408-9.451-7.512-9.451C998.098,8.325,996.144,9.806,996.144,9.806L996.144,9.806z"/>
</g>
<g>
	<g>
		<path fill="#FF0000" d="M1006.066,21.079c-0.334,0-0.599-0.158-0.744-0.446l-0.647-1.414h-3.802l-0.642,1.401
			c-0.104,0.282-0.377,0.459-0.739,0.459c-0.224,0-0.42-0.077-0.568-0.224s-0.228-0.334-0.228-0.541
			c0-0.121,0.023-0.231,0.068-0.329l3.254-6.979c0.281-0.626,1.256-0.621,1.518,0.017l3.258,6.973
			c0.045,0.067,0.079,0.188,0.079,0.319c0,0.213-0.087,0.404-0.25,0.552C1006.469,21.006,1006.277,21.079,1006.066,21.079z
			 M1001.526,17.799h2.506l-1.253-2.734L1001.526,17.799z"/>
	</g>
</g>
</svg>
