<?xml version="1.0" encoding="utf-8"?>
<!-- Generator: Adobe Illustrator 16.0.0, SVG Export Plug-In . SVG Version: 6.00 Build 0)  -->
<!DOCTYPE svg PUBLIC "-//W3C//DTD SVG 1.1//EN" "http://www.w3.org/Graphics/SVG/1.1/DTD/svg11.dtd">
<svg version="1.1" id="Calque_1" xmlns="http://www.w3.org/2000/svg" xmlns:xlink="http://www.w3.org/1999/xlink" x="0px" y="0px"
	 width="128px" height="128px" viewBox="0 0 128 128" enable-background="new 0 0 128 128" xml:space="preserve">
<g id="Calque_2" display="none">
	<g display="inline">
		<path fill="none" d="M65.085,64.747c9.406,0,15.547-12.935,16.563-26.153h-30.49c-0.851,0.106-1.718,0.198-2.616,0.25
			C49.617,51.975,55.738,64.747,65.085,64.747z"/>
		<path fill="none" d="M92.959,75.411l-9.646-3.521L67.88,80.636l-5.938-0.091l-15.506-8.65l-9.566,3.52
			c-1.507,0.729-19.394,9.841-18.328,33.111c0.541,0.854,3.165,4.105,11.531,4.176c-0.264-4.405-0.719-14.237-0.156-22.854
			l4.739,0.311c-0.606,9.285,0.032,20.393,0.246,23.604c5.498,4.867,17.007,7.822,30.305,7.707
			c12.979-0.095,24.488-3.097,29.764-7.703c0.194-3.279,0.781-14.629,0.146-23.756l4.738-0.33c0.595,8.51,0.179,18.563-0.063,23.021
			c8.269-0.072,10.908-3.269,11.493-4.19C112.336,85.279,94.51,76.16,92.959,75.411z"/>
		<path fill="#FF0000" d="M42.041,37.594c0,0.002,0,1.004,0,1.006c-1.305,2.819-1.772,7.667,4.469,13.882
			c3.377,9.688,9.662,17.016,18.575,17.016c8.739,0,15.188-7.482,18.631-17.413c5.837-6.035,5.343-11.733,4.063-14.491H42.041z
			 M81.646,38.594c-1.018,13.218-7.155,26.153-16.563,26.153c-9.347,0-15.468-12.772-16.543-25.903L81.646,38.594z"/>
		<path fill="#FF0000" d="M94.869,71.063l-14.21-5.195l-12.675,7.412h-6.221l-12.676-7.422L35.13,70.989l-0.173,0.071
			c-0.229,0.104-22.684,10.773-21.134,38.211l0.021,0.354l0.12,0.331c0.119,0.321,2.909,7.502,16.378,7.502
			c0.5,0,1.019-0.015,1.55-0.035c6.384,5.541,18.402,8.797,32.667,8.797c0.229,0,0.455-0.002,0.684-0.003
			c11.189-0.078,25.396-2.453,32.746-8.793c14.755,0.546,17.746-7.134,17.869-7.469l0.123-0.33l0.021-0.354
			C117.55,81.837,95.096,71.166,94.869,71.063z M111.283,108.508c-0.586,0.924-3.227,4.118-11.493,4.19
			c0.241-4.46,0.657-14.511,0.065-23.021l-4.74,0.331c0.637,9.127,0.05,20.477-0.146,23.754c-5.273,4.608-16.783,7.61-29.763,7.705
			c-13.298,0.115-24.808-2.84-30.305-7.707c-0.213-3.213-0.852-14.316-0.246-23.604l-4.739-0.311
			c-0.563,8.613-0.108,18.445,0.156,22.854c-8.366-0.067-10.99-3.319-11.531-4.174c-1.065-23.272,16.821-32.391,18.328-33.113
			l9.566-3.518l15.506,8.648l5.938,0.091l15.434-8.745l9.646,3.521C94.51,76.16,112.336,85.279,111.283,108.508z"/>
	</g>
	<path display="inline" fill="#FFFFFF" d="M18.496,121.471"/>
</g>
<g id="Calque_2_2_" display="none">
	<g display="inline">
		<path fill="none" d="M60.268,66.133c9.405,0,15.546-12.934,16.563-26.152H46.34c-0.851,0.106-1.718,0.198-2.615,0.25
			C44.801,53.361,50.92,66.133,60.268,66.133z"/>
		<path fill="none" d="M88.143,76.797l-9.646-3.521l-15.433,8.746l-5.938-0.092l-15.506-8.647L32.054,76.8
			c-1.508,0.729-19.395,9.843-18.328,33.113c0.541,0.854,3.164,4.104,11.531,4.174c-0.265-4.403-0.72-14.235-0.156-22.854
			l4.738,0.312c-0.605,9.287,0.032,20.394,0.246,23.604c5.498,4.867,17.008,7.821,30.305,7.707
			c12.979-0.095,24.489-3.097,29.764-7.703c0.193-3.279,0.781-14.629,0.146-23.756l4.737-0.33c0.595,8.51,0.179,18.563-0.063,23.021
			c8.271-0.071,10.908-3.271,11.494-4.19C107.52,86.666,89.691,77.547,88.143,76.797z"/>
		<path fill="#FF0000" d="M30.996,39.979h6.227c0,0.002,0,0.004,0,0.006c-1.305,2.819-1.771,7.667,4.47,13.882
			c3.377,9.688,9.662,17.016,18.575,17.016c8.739,0,15.188-7.482,18.63-17.412c5.838-6.035,5.344-10.732,4.063-13.491h6.231
			c1.215,0,2.197-0.984,2.197-2.199c0-1.214-0.982-2.199-2.197-2.199h-2.94c0.017-0.334,0.021-0.671,0.021-1.009
			c0-10.568-6.178-19.661-15.055-23.763c0.025,1.039,0.031,2.212,0.031,3.533v3.8c0,10.968-0.596,11.62-10.62,11.62
			c-10.029,0-10.623-0.652-10.623-11.62v-3.8c0-1.326,0.008-2.498,0.041-3.54C41.168,14.904,34.986,24,34.986,34.573
			c0,0.341,0.029,0.673,0.046,1.009h-4.039c-1.214,0-2.198,0.985-2.198,2.199C28.799,38.996,29.782,39.979,30.996,39.979z
			 M46.34,39.979h30.489c-1.017,13.22-7.154,26.153-16.563,26.153c-9.346,0-15.467-12.771-16.543-25.903
			C44.621,40.179,45.489,40.086,46.34,39.979z"/>
		<path fill="#FF0000" d="M90.053,72.449l-14.21-5.197l-12.675,7.414h-6.222L44.27,67.244l-13.957,5.131l-0.174,0.072
			C29.91,72.551,7.455,83.221,9.006,110.658l0.021,0.354l0.12,0.33c0.119,0.322,2.908,7.502,16.378,7.502
			c0.5,0,1.019-0.014,1.55-0.035c6.384,5.541,18.402,8.797,32.667,8.797c0.228,0,0.455-0.002,0.683-0.002
			c11.19-0.078,25.396-2.453,32.747-8.793c14.754,0.545,17.746-7.135,17.869-7.469l0.123-0.33l0.021-0.354
			C112.732,83.223,90.277,72.553,90.053,72.449z M106.466,109.893c-0.586,0.924-3.228,4.119-11.491,4.191
			c0.239-4.461,0.655-14.512,0.063-23.021l-4.74,0.33c0.638,9.127,0.052,20.479-0.146,23.754
			c-5.272,4.609-16.783,7.611-29.764,7.705c-13.297,0.115-24.808-2.84-30.305-7.707c-0.213-3.213-0.852-14.313-0.246-23.604
			L25.1,91.23c-0.563,8.615-0.108,18.446,0.156,22.854c-8.367-0.067-10.99-3.319-11.531-4.174
			C12.66,86.639,30.545,77.52,32.053,76.798l9.565-3.518l15.506,8.647l5.938,0.09l15.434-8.746l9.646,3.521
			C89.691,77.547,107.52,86.666,106.466,109.893z"/>
		<path fill="#FF0000" d="M68.555,9.753c-0.082-1.763-0.279-2.937-0.77-3.485c-0.771-0.865-3.102-0.907-7.152-0.907
			c-3.994,0-6.395,0-7.164,0.853c-0.486,0.541-0.682,1.733-0.763,3.539c2.496-0.824,5.156-1.275,7.921-1.275
			C63.396,8.478,66.059,8.929,68.555,9.753z"/>
		<path fill="#FF0000" d="M52.648,18.143c0,4.501,0,7.218,0.822,8.129c0.771,0.852,3.176,0.852,7.162,0.852
			c3.984,0,6.392,0,7.158-0.852c0.823-0.911,0.823-3.627,0.823-8.129v-3.8c0-1.835-0.004-3.353-0.063-4.589
			c-2.496-0.824-5.157-1.275-7.927-1.275c-2.765,0-5.425,0.451-7.921,1.275c-0.055,1.239-0.06,2.759-0.06,4.589v3.8H52.648z"/>
	</g>
</g>
<g id="Calque_3_1_" display="none">
	<g display="inline">
		<path fill="#FF0000" d="M75.044,36.851C78.825,18.747,67.271,8.54,52.23,8.54c-26.961,0-22.256,29.539-22.256,29.539
			c0.029,0.003,0.059,0.004,0.088,0.007c-1.231,2.785-1.596,7.458,4.25,13.417c3.339,9.77,9.626,17.188,18.576,17.188
			c8.619,0,14.997-7.313,18.444-17.067C78.294,44.605,76.65,39.359,75.044,36.851z M52.887,63.967
			c-9.301,0-15.394-12.713-16.463-25.778C48.117,37.5,55.857,31.96,60.02,27.896c1.979,3.558,6.073,5.944,9.485,7.399
			C69.163,49.311,62.874,63.967,52.887,63.967z"/>
	</g>
	<g display="inline">
		<path fill="none" d="M47.705,118.748c-0.811-0.252-1.482-0.889-1.742-1.742L32.311,71.951c-0.232-0.77-0.098-1.564,0.309-2.189
			l-8.486,3.121C22.9,73.477,3.278,83.33,4.663,108.316c0.222,0.514,2.729,5.713,13.817,5.713c0.459-0.002,0.943-0.019,1.438-0.033
			c0.035-0.002,0.071-0.004,0.105-0.004c0.631,0,1.242,0.229,1.721,0.645c5.126,4.449,14.592,7.326,25.879,7.973l-0.195-0.198
			L47.705,118.748z"/>
		<path fill="none" d="M81.671,72.904l-8.34-3.066c0.401,0.625,0.537,1.418,0.306,2.182l-13.801,45.545
			c-0.258,0.854-0.927,1.484-1.732,1.738l0.236,3.105l-0.14,0.143c9.481-0.643,20.12-2.951,25.883-7.918
			c0.502-0.434,1.146-0.645,1.813-0.635c0.475,0.018,0.939,0.031,1.391,0.031c11.021-0.004,13.566-5.144,13.816-5.717
			C102.477,83.625,83.333,73.715,81.671,72.904z"/>
		<path fill="#FF0000" d="M83.786,68.094c-0.063-0.027-0.121-0.053-0.187-0.076l-13.563-4.994c-1.326-0.486-2.802,0.162-3.336,1.469
			l-1.796,4.373c-0.271,0.659-0.264,1.399,0.023,2.057c0.287,0.652,0.828,1.162,1.498,1.406l1.463,0.539l-8.792,29.016L58.194,86.07
			c-0.015-0.24-0.06-0.475-0.136-0.691l2.427-3.441c0.455-0.646,0.596-1.461,0.383-2.221c-0.045-0.16-0.053-0.188-1.7-4.453
			c-0.416-1.078-1.477-1.752-2.623-1.676c-0.275,0.01-1.619,0.016-3.658,0.016c-2.043,0-3.385-0.006-3.664-0.016
			c-1.139-0.086-2.203,0.594-2.621,1.668c-2.022,5.205-2.022,5.205-1.582,6.215c0.072,0.166,0.158,0.318,0.263,0.467l2.427,3.441
			c-0.074,0.221-0.121,0.451-0.134,0.691l-0.873,15.258l-8.646-28.525l1.305-0.479c0.671-0.246,1.213-0.758,1.5-1.41
			c0.286-0.654,0.294-1.398,0.021-2.063l-1.812-4.372c-0.541-1.301-2.015-1.943-3.333-1.459L22.34,67.949
			c-0.031,0.01-0.063,0.02-0.093,0.033l-0.174,0.069c-0.033,0.017-0.063,0.027-0.095,0.044c-0.242,0.108-24.2,11.438-22.557,40.563
			l0.021,0.35c0.015,0.26,0.067,0.514,0.155,0.758l0.121,0.326c0.345,0.941,3.797,9.191,18.767,9.191
			c0.206,0,0.415-0.004,0.628-0.01C26.137,124.832,38.221,128,52.521,128h0.011l0.697-0.002c5.388-0.039,23.369-0.793,33.475-8.723
			c0.194,0.006,0.394,0.008,0.582,0.008c14.987-0.002,18.422-8.258,18.764-9.195l0.119-0.328c0.09-0.238,0.144-0.49,0.153-0.744
			l0.021-0.354C107.993,79.494,84.027,68.203,83.786,68.094z M47.428,80.221c-0.01-0.018,1.623-4.213,1.623-4.213
			c0.19,0.027,7.479,0.027,7.668,0c0,0,1.604,4.15,1.621,4.213l-2.593,3.684h-5.725L47.428,80.221z M101.104,108.313
			c-0.25,0.574-2.795,5.713-13.816,5.717c-0.445,0-0.916-0.018-1.391-0.03c-0.666-0.01-1.312,0.201-1.813,0.635
			c-5.765,4.968-16.399,7.275-25.883,7.918l-5.314,3.396l-5.262-3.341c-11.287-0.645-20.753-3.521-25.879-7.973
			c-0.479-0.416-1.089-0.645-1.721-0.645c-0.034,0-0.071,0.002-0.105,0.004c-0.494,0.02-0.979,0.029-1.438,0.031
			c-11.088,0-13.596-5.199-13.817-5.711C3.279,83.332,22.9,73.477,24.135,72.885l8.485-3.121c-0.405,0.627-0.541,1.422-0.31,2.188
			l13.654,45.057c0.26,0.855,0.933,1.488,1.741,1.74l2.49-32.729h5.376l2.529,33.281c0.808-0.254,1.477-0.887,1.732-1.74
			l13.802-45.545c0.229-0.764,0.099-1.555-0.307-2.182l8.342,3.066C83.333,73.715,102.477,83.625,101.104,108.313z"/>
		<path fill="#FFFFFF" d="M54.385,81.477l1.002-1.424c-0.146-0.379-0.307-0.801-0.463-1.201c-0.526,0.002-1.193,0.002-2.037,0.002
			c-0.85,0-1.518,0-2.045-0.002c-0.168,0.435-0.326,0.842-0.465,1.197l1.008,1.428H54.385z"/>
		<path fill="#FFFFFF" d="M55.746,83.904l2.592-3.684c-0.018-0.063-1.619-4.216-1.619-4.216c-0.19,0.027-7.479,0.027-7.67,0
			c0,0-1.631,4.195-1.623,4.216l2.597,3.684H55.746z"/>
	</g>
	<g display="inline">
		<path fill="#FF0000" d="M86.723,24.921c0,0.507-0.41,0.918-0.918,0.918h-4.018c-0.508,0-0.918-0.411-0.918-0.918v-4.016
			c0-0.507,0.41-0.918,0.918-0.918h4.018c0.508,0,0.918,0.411,0.918,0.918V24.921z"/>
		<path fill="#FF0000" d="M95.271,24.921c0,0.507-0.41,0.918-0.92,0.918h-4.016c-0.509,0-0.918-0.411-0.918-0.918v-4.016
			c0-0.507,0.409-0.918,0.918-0.918h4.016c0.51,0,0.92,0.411,0.92,0.918V24.921z"/>
		<path fill="#FF0000" d="M103.764,24.921c0,0.507-0.41,0.918-0.918,0.918h-4.017c-0.509,0-0.918-0.411-0.918-0.918v-4.016
			c0-0.507,0.409-0.918,0.918-0.918h4.017c0.508,0,0.918,0.411,0.918,0.918V24.921L103.764,24.921z"/>
	</g>
	<g display="inline">
		<path fill="none" d="M76.126,35.817c0,0.41-0.013,0.815-0.024,1.221h8.834v10.819l8.812-10.819h23.802V8.789h-50.46v4.573
			C72.618,18.777,76.126,26.825,76.126,35.817z"/>
		<path fill="#FF0000" d="M119.456,3.789H65.178c-1.731,0-3.09,1.461-3.09,3.326v3.522c1.801,1.056,3.479,1.233,5.001,2.726V8.789
			h50.455v28.25H93.745l-8.813,10.819V37.039l-9.889-0.188c-0.063,1.708,0.809,3.566,0.506,5.188h4.383v19.877L96.12,42.039h23.334
			c1.731,0,3.091-1.461,3.091-3.326V7.116C122.544,5.249,121.188,3.789,119.456,3.789z"/>
	</g>
</g>
<g id="Calque_5" display="none">
	<g display="inline">
		<path fill="#FF0000" d="M87.629,39.398h6.232c1.215,0,2.199-0.984,2.199-2.199c0-1.214-0.984-2.199-2.199-2.199H90.92
			c0.016-0.334,0.023-0.671,0.023-1.009c0-10.568-6.178-19.661-15.055-23.763c0.025,1.039,0.031,2.212,0.031,3.533v3.8
			c0,10.968-0.596,11.62-10.622,11.62c-10.028,0-10.623-0.652-10.623-11.62v-3.8c0-1.326,0.009-2.498,0.042-3.54
			c-8.881,4.101-15.063,13.198-15.063,23.77c0,0.341,0.03,0.673,0.046,1.009h-4.039c-1.214,0-2.199,0.985-2.199,2.199
			c0.001,1.214,0.986,2.199,2.2,2.199h6.227c0,0.002,0,0.004,0,0.006L87.629,39.398z"/>
		<path fill="#FF0000" d="M73.223,9.171c-0.084-1.763-0.281-2.937-0.77-3.485c-0.77-0.865-3.1-0.907-7.153-0.907
			c-3.994,0-6.394,0-7.163,0.853c-0.487,0.541-0.682,1.733-0.763,3.539c0,0,0,0-0.001,0c-0.055,1.239-0.059,2.759-0.059,4.589v3.8
			h0.002c0,4.501,0,7.218,0.823,8.129c0.77,0.852,3.175,0.852,7.161,0.852c3.985,0,6.392,0,7.159-0.852
			c0.824-0.911,0.824-3.627,0.824-8.129v-3.8C73.283,11.925,73.279,10.407,73.223,9.171"/>
	</g>
</g>
<g id="Calque_4" display="none">
	
		<image display="inline" overflow="visible" enable-background="new    " width="1501" height="1343" xlink:href="9852F1C1.jpeg"  transform="matrix(0.9993 0 0 0.9993 -564.9995 -516.6094)">
	</image>
</g>
<circle fill="none" stroke="#FF0000" stroke-width="5" stroke-linecap="round" stroke-linejoin="round" stroke-miterlimit="10" cx="64.671" cy="62.751" r="58.526"/>
<polyline fill="none" stroke="#FF0000" stroke-width="13" stroke-linecap="round" stroke-linejoin="round" stroke-miterlimit="10" points="
	35.189,62.751 55.236,93.563 94.152,42.524 "/>
</svg>
