<?xml version="1.0" encoding="UTF-8" standalone="no"?>
<svg
   xmlns:dc="http://purl.org/dc/elements/1.1/"
   xmlns:cc="http://creativecommons.org/ns#"
   xmlns:rdf="http://www.w3.org/1999/02/22-rdf-syntax-ns#"
   xmlns:svg="http://www.w3.org/2000/svg"
   xmlns="http://www.w3.org/2000/svg"
   xmlns:sodipodi="http://sodipodi.sourceforge.net/DTD/sodipodi-0.dtd"
   xmlns:inkscape="http://www.inkscape.org/namespaces/inkscape"
   id="Capa_1"
   enable-background="new 0 0 512 512"
   height="128"
   viewBox="0 0 512 512"
   width="128"
   version="1.1"
   sodipodi:docname="iconLocalizationRequestType.svg"
   inkscape:version="1.0.2-2 (e86c870879, 2021-01-15)">
  <metadata
     id="metadata249">
    <rdf:RDF>
      <cc:Work
         rdf:about="">
        <dc:format>image/svg+xml</dc:format>
        <dc:type
           rdf:resource="http://purl.org/dc/dcmitype/StillImage" />
      </cc:Work>
    </rdf:RDF>
  </metadata>
  <defs
     id="defs247" />
  <sodipodi:namedview
     pagecolor="#ffffff"
     bordercolor="#666666"
     borderopacity="1"
     objecttolerance="10"
     gridtolerance="10"
     guidetolerance="10"
     inkscape:pageopacity="0"
     inkscape:pageshadow="2"
     inkscape:window-width="1920"
     inkscape:window-height="1001"
     id="namedview245"
     showgrid="false"
     inkscape:zoom="3.2421875"
     inkscape:cx="1.6950168"
     inkscape:cy="85.360393"
     inkscape:window-x="-9"
     inkscape:window-y="-9"
     inkscape:window-maximized="1"
     inkscape:current-layer="Capa_1" />
  <g
     id="g242">
    <path
       style="fill:#FF0000;"
       d="m480.452 224.452h-64.129c-4.142 0-7.5 3.358-7.5 7.5s3.358 7.5 7.5 7.5h64.129c9.125 0 16.548 7.423 16.548 16.548v224.452c0 9.125-7.423 16.548-16.548 16.548h-224.452c-9.125 0-16.548-7.423-16.548-16.548v-224.452c0-9.125 7.423-16.548 16.548-16.548h128.259c4.142 0 7.5-3.358 7.5-7.5s-3.358-7.5-7.5-7.5h-128.259c-17.396 0-31.548 14.152-31.548 31.548v224.452c0 17.396 14.152 31.548 31.548 31.548h224.452c17.396 0 31.548-14.152 31.548-31.548v-224.452c0-17.396-14.152-31.548-31.548-31.548z"
       id="path232" />
    <path
       style="fill:#FF0000;"
       d="m378.434 295.254c-1.668-4.055-5.577-6.674-9.961-6.674-.003 0-.007 0-.011 0-4.388.004-8.297 2.631-9.958 6.693-.023.056-.045.113-.067.169l-54.181 142.258c-1.474 3.871.468 8.204 4.339 9.678.879.335 1.781.493 2.668.493 3.022 0 5.871-1.84 7.01-4.833l11.654-30.599h76.701l11.54 30.578c1.463 3.875 5.788 5.832 9.665 4.369 3.875-1.462 5.832-5.79 4.369-9.665l-53.688-142.264c-.025-.067-.052-.135-.08-.203zm-42.793 102.187 32.813-86.156 32.514 86.156z"
       id="path236" />
    <path
       style="fill:#FF0000;"
       d="m204.387 410.323-32.064-24.048c-3.313-2.485-8.015-1.813-10.5 1.5s-1.813 8.015 1.5 10.5l14.064 10.548h-25.597c-26.806 0-48.613-21.808-48.613-48.613v-48.093c0-4.142-3.358-7.5-7.5-7.5s-7.5 3.358-7.5 7.5v48.093c0 35.077 28.537 63.613 63.613 63.613h25.597l-14.064 10.548c-3.313 2.485-3.985 7.187-1.5 10.5 1.474 1.965 3.726 3 6.006 3 1.566 0 3.145-.489 4.494-1.5l32.064-24.048c1.889-1.417 3-3.639 3-6s-1.111-4.584-3-6z"
       id="path238" />
    <path
       style="fill:#FF0000;"
       d="m307.613 101.677 32.064 24.048c1.349 1.012 2.928 1.5 4.494 1.5 2.28 0 4.533-1.036 6.006-3 2.485-3.313 1.813-8.015-1.5-10.5l-14.064-10.548h25.597c26.806 0 48.613 21.808 48.613 48.613v48.093c0 4.142 3.358 7.5 7.5 7.5s7.5-3.358 7.5-7.5v-48.093c0-35.077-28.537-63.613-63.613-63.613h-25.597l14.064-10.548c3.313-2.485 3.985-7.187 1.5-10.5-2.486-3.314-7.186-3.985-10.5-1.5l-32.064 24.048c-1.889 1.417-3 3.639-3 6s1.111 4.584 3 6z"
       id="path240" />
  </g>
  <path
     fill="#ff0000"
     d="M 269.66,6.78 H 20.664 c -6.628,0 -12,5.376 -12,12 v 249 c 0,6.628 5.372,12 12,12 h 249 c 6.632,0 12,-5.372 12,-12 v -249 c -0.004,-6.623999 -5.372,-12 -12.004,-12 z M 69.584,221.072 c -11.072,0 -20.048,-8.968 -20.048,-20.04 0,-11.072 8.976,-20.04 20.048,-20.04 11.064,0 20.04,8.968 20.04,20.04 0,11.072 -8.98,20.04 -20.04,20.04 z m 0,-60.952 c -11.072,0 -20.048,-8.972 -20.048,-20.04 0,-11.072 8.976,-20.044 20.048,-20.044 11.064,0 20.04,8.972 20.04,20.044 -0.004,11.068 -8.98,20.04 -20.04,20.04 z m 0,-60.948 c -11.072,0 -20.048,-8.976 -20.048,-20.04 0,-11.072 8.976,-20.048 20.048,-20.048 11.064,0 20.04,8.976 20.04,20.048 -0.004,11.064 -8.98,20.04 -20.04,20.04 z m 154.504,118.492 h -94.912 c -9.22,0 -16.696,-7.48 -16.696,-16.704 0,-9.224 7.476,-16.704 16.696,-16.704 h 94.916 c 9.22,0 16.696,7.48 16.696,16.704 0,9.224 -7.48,16.704 -16.7,16.704 z m 0,-60.952 h -94.912 c -9.22,0 -16.696,-7.476 -16.696,-16.704 0,-9.22 7.476,-16.7 16.696,-16.7 h 94.916 c 9.22,0 16.696,7.48 16.696,16.7 -0.004,9.228 -7.48,16.704 -16.7,16.704 z m 0,-60.955999 h -94.912 c -9.22,0 -16.696,-7.476 -16.696,-16.7 0,-9.224001 7.476,-16.7 16.696,-16.7 h 94.916 c 9.22,0 16.696,7.475999 16.696,16.7 0,9.224 -7.48,16.7 -16.7,16.7 z"
     id="path131"
     style="stroke-width:9.6;stroke:#ffffff;stroke-opacity:1;stroke-miterlimit:4;stroke-dasharray:none" />
  <path
     fill="#ff0000"
     d="M 269.66,6.780009 H 20.664 c -6.628,0 -12,5.376 -12,11.99999 V 267.78 c 0,6.628 5.372,12 12,12 h 249 c 6.632,0 12,-5.372 12,-12 V 18.779999 C 281.66,12.156009 276.292,6.780009 269.66,6.780009 Z M 69.584,221.072 c -11.072,0 -20.048,-8.968 -20.048,-20.04 0,-11.072 8.976,-20.04 20.048,-20.04 11.064,0 20.04,8.968 20.04,20.04 0,11.072 -8.98,20.04 -20.04,20.04 z m 0,-60.952 c -11.072,0 -20.048,-8.972 -20.048,-20.04 0,-11.072 8.976,-20.044 20.048,-20.044 11.064,0 20.04,8.972 20.04,20.044 -0.004,11.068 -8.98,20.04 -20.04,20.04 z m 0,-60.948 c -11.072,0 -20.048,-8.976 -20.048,-20.040001 0,-11.072 8.976,-20.048 20.048,-20.048 11.064,0 20.04,8.976 20.04,20.048 C 89.62,90.196 80.644,99.172 69.584,99.172 Z m 154.504,118.492 h -94.912 c -9.22,0 -16.696,-7.48 -16.696,-16.704 0,-9.224 7.476,-16.704 16.696,-16.704 h 94.916 c 9.22,0 16.696,7.48 16.696,16.704 0,9.224 -7.48,16.704 -16.7,16.704 z m 0,-60.952 h -94.912 c -9.22,0 -16.696,-7.476 -16.696,-16.704 0,-9.22 7.476,-16.7 16.696,-16.7 h 94.916 c 9.22,0 16.696,7.48 16.696,16.7 -0.004,9.228 -7.48,16.704 -16.7,16.704 z m 0,-60.95599 h -94.912 c -9.22,0 -16.696,-7.476 -16.696,-16.700011 0,-9.224 7.476,-16.7 16.696,-16.7 h 94.916 c 9.22,0 16.696,7.476 16.696,16.7 0,9.224011 -7.48,16.700011 -16.7,16.700011 z"
     id="path131-4"
     style="stroke-width:4" />
</svg>
