<?xml version="1.0" encoding="utf-8"?>
<!-- Generator: Adobe Illustrator 16.0.0, SVG Export Plug-In . SVG Version: 6.00 Build 0)  -->
<!DOCTYPE svg PUBLIC "-//W3C//DTD SVG 1.1//EN" "http://www.w3.org/Graphics/SVG/1.1/DTD/svg11.dtd">
<svg version="1.1" id="Calque_1" xmlns="http://www.w3.org/2000/svg" xmlns:xlink="http://www.w3.org/1999/xlink" x="0px" y="0px"
	 width="128px" height="128px" viewBox="0 0 128 128" enable-background="new 0 0 128 128" xml:space="preserve">
<path fill="#FF0000" d="M75.723,48.484c0,3.525-0.886,6.788-2.387,9.43c-2.246,3.948-5.87,8.276-9.95,8.276
	c-4.018,0-7.584-4.247-9.837-8.084c-1.569-2.675-2.5-6.008-2.5-9.622c0-8.804,5.524-15.942,12.339-15.942
	C70.198,32.541,75.723,39.68,75.723,48.484z"/>
<path fill="#FF0000" d="M33.384,96.143c0,0-3.436-20.286,18.449-25.952c0,0,3.528,5.929,12.132,5.929h0.072
	c8.603,0,12.132-5.929,12.132-5.929c21.885,5.667,18.446,25.952,18.446,25.952c-31.554,15.815-61.429,1.066-61.429,1.066"/>
<path fill="none" stroke="#FF0000" stroke-width="5" stroke-linecap="round" stroke-linejoin="round" stroke-miterlimit="10" d="
	M75.003,10.417l12.15,21.862c1.5,2.697,4.113,4.597,7.145,5.19l24.547,4.799c8.062,1.575,11.25,11.396,5.654,17.411l-17.035,18.31
	c-2.104,2.261-3.103,5.334-2.729,8.399l3.021,24.826c0.991,8.154-7.361,14.225-14.81,10.762l-22.682-10.545
	c-2.798-1.302-6.03-1.302-8.829,0l-22.68,10.545c-7.448,3.463-15.802-2.607-14.81-10.762l3.021-24.826
	c0.372-3.065-0.625-6.139-2.729-8.399L7.2,59.68c-5.596-6.015-2.404-15.835,5.657-17.411l24.546-4.799
	c3.03-0.594,5.644-2.493,7.144-5.19l12.15-21.862C60.686,3.237,71.013,3.237,75.003,10.417z"/>
</svg>
