<?xml version="1.0" encoding="utf-8"?>
<!-- Generator: Adobe Illustrator 16.0.0, SVG Export Plug-In . SVG Version: 6.00 Build 0)  -->
<!DOCTYPE svg PUBLIC "-//W3C//DTD SVG 1.1//EN" "http://www.w3.org/Graphics/SVG/1.1/DTD/svg11.dtd">
<svg version="1.1" id="Calque_1" xmlns="http://www.w3.org/2000/svg" xmlns:xlink="http://www.w3.org/1999/xlink" x="0px" y="0px"
	 width="128px" height="128px" viewBox="0 0 128 128" enable-background="new 0 0 128 128" xml:space="preserve">
<line fill="none" stroke="#FF0000" stroke-width="5" stroke-linecap="round" stroke-linejoin="round" stroke-miterlimit="10" x1="8.107" y1="119.197" x2="117.436" y2="119.197"/>
<polygon fill="none" stroke="#FF0000" stroke-width="5" stroke-linecap="round" stroke-linejoin="round" stroke-miterlimit="10" points="
	59.057,37.771 60.362,35.9 72.443,18.564 125.688,55.681 81.626,118.889 32.843,118.666 12.536,104.512 39.578,65.715 
	44.322,58.908 "/>
<line fill="none" stroke="#FF0000" stroke-width="5" stroke-linecap="round" stroke-linejoin="round" stroke-miterlimit="10" x1="72.934" y1="41.968" x2="103.243" y2="62.78"/>
<line fill="none" stroke="#FF0000" stroke-width="5" stroke-linecap="round" stroke-linejoin="round" stroke-miterlimit="10" x1="63.152" y1="56.212" x2="93.461" y2="77.025"/>
<line fill="none" stroke="#FF0000" stroke-width="5" stroke-linecap="round" stroke-linejoin="round" stroke-miterlimit="10" x1="53.957" y1="69.604" x2="84.268" y2="90.416"/>
<g id="Calque_1_4_" xmlns:serif="http://www.serif.com/">
	<g id="path17_3_">
		<path fill="none" stroke="#FF0000" stroke-width="5" stroke-linecap="round" stroke-linejoin="round" stroke-miterlimit="10" d="
			M18.178,83.777l-2.158-2.166c-2.053-2.055-3.617-3.625-4.229-4.352c0.478-0.566,1.59-1.684,2.439-2.535l2.94-2.949l1.97-1.976
			l-1.244-2.495l-0.946-1.9c-0.965-1.938-1.623-3.548-2.202-5.39l-0.43-1.367l-0.846-2.697l-2.825-0.023l-4.352-0.034l-3.378-0.028
			c-0.057-0.055-0.114-0.123-0.155-0.178V43.336c0.04-0.055,0.099-0.123,0.155-0.179l3.382-0.028l4.347-0.036l2.837-0.023
			l0.839-2.709l0.37-1.192c0.516-1.671,1.523-4.116,2.344-5.684l0.856-1.636l1.316-2.517l-1.998-2.015l-2.959-2.986
			c-0.918-0.925-2.03-2.047-2.48-2.594v-0.042c0.583-0.697,2.134-2.234,4.176-4.258l0.209-0.206c2.11-2.092,3.835-3.802,4.603-4.43
			c0.563,0.474,1.665,1.574,2.506,2.412c3.361,3.35,4.061,4.047,5.843,4.047c0.864,0,1.716-0.265,2.428-0.746
			c0.185-0.101,0.625-0.333,1.27-0.656c1.634-0.817,3.479-1.564,5.197-2.104l1.366-0.43l2.693-0.847l0.023-2.824l0.036-4.346
			l0.028-3.388c0.053-0.055,0.116-0.11,0.167-0.146h12.352"/>
		<path fill="none" stroke="#FF0000" stroke-width="5" stroke-linecap="round" stroke-linejoin="round" stroke-miterlimit="10" d="
			M54.669,3.772c0.054,0.04,0.123,0.098,0.179,0.155l0.026,3.38l0.038,4.346l0.022,2.824l2.693,0.847l1.366,0.43
			c1.821,0.572,3.575,1.293,5.369,2.202"/>
	</g>
	<path id="path19_1_" fill="none" stroke="#FF0000" stroke-width="5" stroke-miterlimit="10" d="M39.571,65.713
		c-4.949-2.686-8.141-6.839-9.346-12.891c-0.374-1.876-0.373-4.849,0.001-6.73c1.525-7.663,7.223-13.358,14.894-14.888
		c1.861-0.371,4.839-0.37,6.723,0.002c3.115,0.616,5.911,1.913,8.256,3.803"/>
</g>
</svg>
