<?xml version="1.0" encoding="utf-8"?>
<!-- Generator: Adobe Illustrator 16.0.0, SVG Export Plug-In . SVG Version: 6.00 Build 0)  -->
<!DOCTYPE svg PUBLIC "-//W3C//DTD SVG 1.1//EN" "http://www.w3.org/Graphics/SVG/1.1/DTD/svg11.dtd">
<svg version="1.1" id="Calque_1" xmlns="http://www.w3.org/2000/svg" xmlns:xlink="http://www.w3.org/1999/xlink" x="0px" y="0px"
	 width="128px" height="128px" viewBox="0 0 128 128" enable-background="new 0 0 128 128" xml:space="preserve">
<g id="Calque_1_1_">
	<g id="Calque_2" display="none">
		<g display="inline">
			<g>
				<g>
					<path fill="#FF0000" d="M1,66.631C1.003,32.317,28.795,4.526,63.085,4.526l0,0v3.155v3.157
						C32.278,10.896,7.373,35.805,7.319,66.631l0,0c0.054,30.787,24.959,55.695,55.766,55.761l0,0
						c30.8-0.065,55.715-24.974,55.772-55.761l0,0C118.8,35.805,93.885,10.896,63.085,10.839l0,0V7.682V4.526
						c34.287,0,62.078,27.791,62.078,62.104l0,0c-0.007,34.268-27.791,62.066-62.078,62.072l0,0
						C28.795,128.697,1.003,100.898,1,66.631L1,66.631z M41.559,112.175V95.703h6.773V63.157h-10.34l0.238-15.594h17.574
						c-4.993-2.651-8.387-7.896-8.391-13.935l0,0c0.003-8.705,7.047-15.758,15.751-15.758l0,0v3.155v3.155
						c-5.208,0.017-9.428,4.23-9.438,9.447l0,0c0.01,5.194,4.233,9.431,9.438,9.447l0,0c5.191-0.017,9.436-4.252,9.449-9.447l0,0
						c-0.014-5.21-4.248-9.432-9.449-9.447l0,0v-3.155v-3.155c8.693,0,15.762,7.047,15.762,15.758l0,0
						c0,6.039-3.415,11.291-8.408,13.935l0,0h5.238v48.153H85.9v13.302v3.156H41.559L41.559,112.175z M82.736,109.019v-3.155
						V109.019L82.736,109.019z M47.871,105.863h31.711v-3.832H69.443V53.875H44.448l-0.043,2.962h10.239v45.178h-6.766
						L47.871,105.863L47.871,105.863z"/>
				</g>
			</g>
		</g>
	</g>
	<circle fill="none" stroke="#FF0000" stroke-width="5" stroke-miterlimit="10" cx="65.615" cy="66.731" r="59.306"/>
</g>
<g id="Calque_2_1_">
	<g enable-background="new    ">
		<path fill="#FF0000" d="M35.242,60.925v-9.485h55.679v9.485H35.242z M35.242,81.791v-9.485h55.679v9.485H35.242z"/>
	</g>
	<g enable-background="new    ">
		<path fill="none" stroke="#FF0000" stroke-width="5" stroke-linecap="round" stroke-linejoin="round" stroke-miterlimit="10" d="
			M35.242,60.925v-9.485h55.679v9.485H35.242z M35.242,81.791v-9.485h55.679v9.485H35.242z"/>
	</g>
</g>
</svg>
