<?xml version="1.0" encoding="utf-8"?>
<!-- Generator: Adobe Illustrator 16.0.0, SVG Export Plug-In . SVG Version: 6.00 Build 0)  -->
<!DOCTYPE svg PUBLIC "-//W3C//DTD SVG 1.1//EN" "http://www.w3.org/Graphics/SVG/1.1/DTD/svg11.dtd">
<svg version="1.1" id="Calque_1" xmlns="http://www.w3.org/2000/svg" xmlns:xlink="http://www.w3.org/1999/xlink" x="0px" y="0px"
	 width="128px" height="128px" viewBox="0 0 128 128" enable-background="new 0 0 128 128" xml:space="preserve">
<line fill="none" stroke="#FF0000" stroke-width="5" stroke-linecap="round" stroke-linejoin="round" stroke-miterlimit="10" x1="8.107" y1="119.197" x2="117.436" y2="119.197"/>
<polyline fill="none" stroke="#FF0000" stroke-width="5" stroke-linecap="round" stroke-linejoin="round" stroke-miterlimit="10" points="
	65.473,28.567 72.443,18.564 125.688,55.681 81.626,118.889 32.843,118.666 12.536,104.512 38.379,67.436 "/>
<line fill="none" stroke="#FF0000" stroke-width="5" stroke-linecap="round" stroke-linejoin="round" stroke-miterlimit="10" x1="76.004" y1="44.86" x2="101.301" y2="62.23"/>
<line fill="none" stroke="#FF0000" stroke-width="5" stroke-linecap="round" stroke-linejoin="round" stroke-miterlimit="10" x1="66.223" y1="59.104" x2="91.52" y2="76.477"/>
<line fill="none" stroke="#FF0000" stroke-width="5" stroke-linecap="round" stroke-linejoin="round" stroke-miterlimit="10" x1="57.027" y1="72.496" x2="82.324" y2="89.866"/>
<g id="Calque_2_1_">
	<g>
		<path fill="#FF0000" d="M31.005,56.591c-0.907-0.907-1.358-2.048-1.358-3.424V40.601h-12.57c-1.376,0-2.518-0.471-3.423-1.408
			c-0.905-0.935-1.358-2.095-1.358-3.471c0-1.375,0.453-2.517,1.358-3.423c0.905-0.906,2.047-1.36,3.423-1.36h12.566V18.372
			c0-1.312,0.482-2.437,1.455-3.375c0.969-0.938,2.079-1.407,3.331-1.407c1.373,0,2.516,0.454,3.421,1.36
			c0.906,0.906,1.36,2.047,1.36,3.421v12.565h12.565c1.315,0,2.454,0.472,3.423,1.407c0.969,0.935,1.456,2.098,1.456,3.472
			c0,1.313-0.481,2.439-1.456,3.375c-0.97,0.937-2.108,1.406-3.423,1.406H39.21v12.566c0,1.376-0.454,2.519-1.36,3.424
			c-0.905,0.906-2.048,1.358-3.421,1.358C33.052,57.95,31.909,57.497,31.005,56.591z"/>
	</g>
	<circle fill="none" stroke="#FF0000" stroke-width="5" stroke-miterlimit="10" cx="34.379" cy="35.77" r="31.916"/>
</g>
</svg>
