<?xml version="1.0" encoding="utf-8"?>
<!-- Generator: Adobe Illustrator 16.0.0, SVG Export Plug-In . SVG Version: 6.00 Build 0)  -->
<!DOCTYPE svg PUBLIC "-//W3C//DTD SVG 1.1//EN" "http://www.w3.org/Graphics/SVG/1.1/DTD/svg11.dtd">
<svg version="1.1" id="Calque_1" xmlns="http://www.w3.org/2000/svg" xmlns:xlink="http://www.w3.org/1999/xlink" x="0px" y="0px"
	 width="128px" height="128px" viewBox="0 0 128 128" enable-background="new 0 0 128 128" xml:space="preserve">
<g>
	<path fill="none" stroke="#FF0000" stroke-width="5" stroke-linecap="round" stroke-linejoin="round" stroke-miterlimit="10" d="
		M102.377,122.528H52.272c-3.259,0-5.922-2.666-5.922-5.923V37.349c0-3.257,2.663-5.92,5.922-5.92h50.104
		c3.256,0,5.922,2.664,5.922,5.92v79.256C108.299,119.862,105.633,122.528,102.377,122.528z"/>
	<path fill="none" stroke="#FF0000" stroke-width="5" stroke-linecap="round" stroke-linejoin="round" stroke-miterlimit="10" d="
		M40.531,103.807L8.84,42.598c-1.498-2.892-0.356-6.483,2.536-7.981L55.87,11.58c2.893-1.498,6.482-0.357,7.983,2.536l5.953,11.504"
		/>
	<path fill="#FF0000" d="M95.593,76.396c-2.286-7.29-18.269-20.115-18.269-20.115S61.343,69.106,59.057,76.396
		c-1.957,5.211,0,13.115,7.128,13.983c4.733,0.574,5.151-2.016,8.533-3.825c-2.63,3.609-2.506,8.537-6.468,11.12h18.147
		c-3.96-2.583-3.837-7.511-6.466-11.12c3.38,1.81,3.8,4.399,8.531,3.825C95.593,89.512,97.55,81.607,95.593,76.396z"/>
</g>
</svg>
