<?xml version="1.0" encoding="utf-8"?>
<!-- Generator: Adobe Illustrator 16.0.0, SVG Export Plug-In . SVG Version: 6.00 Build 0)  -->
<!DOCTYPE svg PUBLIC "-//W3C//DTD SVG 1.1//EN" "http://www.w3.org/Graphics/SVG/1.1/DTD/svg11.dtd">
<svg version="1.1" id="Calque_1" xmlns="http://www.w3.org/2000/svg" xmlns:xlink="http://www.w3.org/1999/xlink" x="0px" y="0px"
	 width="128px" height="128px" viewBox="0 0 128 128" enable-background="new 0 0 128 128" xml:space="preserve">
<path fill="none" stroke="#FF0000" stroke-width="5" stroke-linecap="round" stroke-linejoin="round" stroke-miterlimit="10" d="
	M118.182,124.617H63.742c-3.54,0-6.435-2.896-6.435-6.434V66.333c0-1.769,6.104-1.834,8.335-11.567
	c2.23-9.732,0.588-29.13,2.357-29.13h50.182c3.535,0,6.432,2.896,6.432,6.433v86.115
	C124.613,121.721,121.717,124.617,118.182,124.617z"/>
<path fill="#FF0000" d="M110.809,74.495c-2.483-7.921-19.848-21.856-19.848-21.856s-17.365,13.936-19.85,21.856
	c-2.125,5.662,0,14.249,7.746,15.19c5.141,0.625,5.598-2.188,9.271-4.152c-2.857,3.919-2.723,9.271-7.029,12.082h19.719
	c-4.303-2.811-4.168-8.163-7.025-12.082c3.674,1.965,4.131,4.777,9.271,4.152C110.809,88.744,112.936,80.157,110.809,74.495z"/>
<path fill="#FF0000" d="M66.916,1.875H4.667c-1.657,0-3,1.343-3,3v62.25c0,1.657,1.343,3,3,3h62.25c1.658,0,3-1.343,3-3V4.875
	C69.916,3.218,68.574,1.875,66.916,1.875z M16.896,55.448c-2.768,0-5.011-2.243-5.011-5.011s2.243-5.011,5.011-5.011
	c2.767,0,5.01,2.243,5.01,5.011S19.663,55.448,16.896,55.448z M16.896,40.21c-2.768,0-5.011-2.243-5.011-5.01
	c0-2.769,2.243-5.011,5.011-5.011c2.767,0,5.01,2.243,5.01,5.011C21.905,37.967,19.663,40.21,16.896,40.21z M16.896,24.972
	c-2.768,0-5.011-2.243-5.011-5.01c0-2.768,2.243-5.011,5.011-5.011c2.767,0,5.01,2.243,5.01,5.011
	C21.905,22.729,19.663,24.972,16.896,24.972z M55.522,54.596H31.795c-2.306,0-4.175-1.871-4.175-4.176
	c0-2.305,1.869-4.175,4.175-4.175h23.727c2.307,0,4.176,1.87,4.176,4.175C59.698,52.725,57.829,54.596,55.522,54.596z
	 M55.522,39.357H31.795c-2.306,0-4.175-1.871-4.175-4.176c0-2.305,1.869-4.175,4.175-4.175h23.727c2.307,0,4.176,1.87,4.176,4.175
	C59.698,37.486,57.829,39.357,55.522,39.357z M55.522,24.12H31.795c-2.306,0-4.175-1.87-4.175-4.175
	c0-2.305,1.869-4.175,4.175-4.175h23.727c2.307,0,4.176,1.87,4.176,4.175C59.698,22.25,57.829,24.12,55.522,24.12z"/>
</svg>
