<?xml version="1.0" encoding="utf-8"?>
<!-- Generator: Adobe Illustrator 16.0.0, SVG Export Plug-In . SVG Version: 6.00 Build 0)  -->
<!DOCTYPE svg PUBLIC "-//W3C//DTD SVG 1.1//EN" "http://www.w3.org/Graphics/SVG/1.1/DTD/svg11.dtd">
<svg version="1.1" id="Calque_2" xmlns="http://www.w3.org/2000/svg" xmlns:xlink="http://www.w3.org/1999/xlink" x="0px" y="0px"
	 width="128px" height="128px" viewBox="0 0 128 128" enable-background="new 0 0 128 128" xml:space="preserve">
<path fill="none" stroke="#FF0000" stroke-width="5" stroke-linecap="round" stroke-linejoin="round" stroke-miterlimit="10" d="
	M116.034,96.421H10.7c-3.177,0-5.775-2.601-5.775-5.774V19.898c0-3.177,2.598-5.775,5.775-5.775h105.334
	c3.177,0,5.774,2.598,5.774,5.775v70.749C121.811,93.82,119.211,96.421,116.034,96.421z"/>
<path fill="none" stroke="#FF0000" stroke-width="5" stroke-linecap="round" stroke-linejoin="round" stroke-miterlimit="10" d="
	M90.402,110.732H70.186V96.421H57.859v14.313H36.333c-2.297,0-4.173,1.877-4.173,4.175c0,2.296,1.876,4.174,4.173,4.174h54.069
	c2.298,0,4.174-1.878,4.174-4.174C94.575,112.611,92.699,110.732,90.402,110.732z"/>
<g>
	<defs>
		<path id="SVGID_1_" d="M12.312,59.103c0-1.104,0.896-2,2-2h96.845c1.104,0,2,0.896,2,2v28.554c0,1.104-0.896,2-2,2H14.312
			c-1.104,0-2-0.896-2-2V59.103z"/>
	</defs>
	<clipPath id="SVGID_2_">
		<use xlink:href="#SVGID_1_"  overflow="visible"/>
	</clipPath>
	<g id="XMLID_21_" clip-path="url(#SVGID_2_)">
		<polygon id="XMLID_1063_" fill="#FF0000" points="112.582,116.656 113.157,116.082 113.157,114.455 110.956,116.656 		"/>
		<polygon id="XMLID_1064_" fill="#FF0000" points="109.331,116.656 113.157,112.828 113.157,111.203 107.703,116.656 		"/>
		<polygon id="XMLID_1065_" fill="#FF0000" points="106.077,116.656 113.157,109.576 113.157,107.95 104.452,116.656 		"/>
		<polygon id="XMLID_1066_" fill="#FF0000" points="102.827,116.656 113.157,106.324 113.157,104.698 101.201,116.656 		"/>
		<polygon id="XMLID_1067_" fill="#FF0000" points="99.573,116.656 113.157,103.071 113.157,101.446 97.947,116.656 		"/>
		<polygon id="XMLID_1068_" fill="#FF0000" points="96.319,116.656 113.157,99.818 113.157,98.192 94.694,116.656 		"/>
		<polygon id="XMLID_1069_" fill="#FF0000" points="93.068,116.656 113.157,96.567 113.157,94.94 91.44,116.656 		"/>
		<polygon id="XMLID_1070_" fill="#FF0000" points="89.815,116.656 113.157,93.315 113.157,91.688 88.189,116.656 		"/>
		<polygon id="XMLID_1071_" fill="#FF0000" points="86.563,116.656 113.157,90.063 113.157,88.438 84.938,116.656 		"/>
		<polygon id="XMLID_1072_" fill="#FF0000" points="83.31,116.656 113.157,86.811 113.157,85.186 81.685,116.656 		"/>
		<polygon id="XMLID_1073_" fill="#FF0000" points="80.06,116.656 113.157,83.56 113.157,81.933 78.434,116.656 		"/>
		<polygon id="XMLID_1074_" fill="#FF0000" points="76.809,116.656 113.157,80.308 113.157,78.681 75.181,116.656 		"/>
		<polygon id="XMLID_1075_" fill="#FF0000" points="73.555,116.656 113.157,77.054 113.157,75.429 71.93,116.656 		"/>
		<polygon id="XMLID_1076_" fill="#FF0000" points="70.301,116.656 113.157,73.801 113.157,72.175 68.676,116.656 		"/>
		<polygon id="XMLID_1077_" fill="#FF0000" points="67.048,116.656 113.157,70.548 113.157,68.923 65.422,116.656 		"/>
		<polygon id="XMLID_1078_" fill="#FF0000" points="63.797,116.656 113.157,67.298 113.157,65.671 62.171,116.656 		"/>
		<polygon id="XMLID_1079_" fill="#FF0000" points="60.544,116.656 113.157,64.045 113.157,62.418 58.918,116.656 		"/>
		<polygon id="XMLID_1080_" fill="#FF0000" points="57.292,116.656 113.157,60.793 113.157,59.167 55.667,116.656 		"/>
		<polygon id="XMLID_1081_" fill="#FF0000" points="54.042,116.656 113.157,57.541 113.157,55.916 52.415,116.656 		"/>
		<polygon id="XMLID_1082_" fill="#FF0000" points="50.788,116.656 113.157,54.29 113.157,52.663 49.163,116.656 		"/>
		<polygon id="XMLID_1083_" fill="#FF0000" points="47.536,116.656 113.157,51.038 113.157,49.411 45.91,116.656 		"/>
		<polygon id="XMLID_1084_" fill="#FF0000" points="44.284,116.656 113.157,47.784 113.157,46.159 42.658,116.656 		"/>
		<polygon id="XMLID_1085_" fill="#FF0000" points="41.031,116.656 113.157,44.531 113.157,42.905 39.406,116.656 		"/>
		<polygon id="XMLID_1086_" fill="#FF0000" points="37.779,116.656 113.157,41.278 113.157,39.653 36.154,116.656 		"/>
		<polygon id="XMLID_1087_" fill="#FF0000" points="34.527,116.656 113.157,38.028 113.157,36.401 32.901,116.656 		"/>
		<polygon id="XMLID_1088_" fill="#FF0000" points="31.275,116.656 113.157,34.775 113.157,33.149 29.649,116.656 		"/>
		<polygon id="XMLID_1089_" fill="#FF0000" points="28.022,116.656 113.157,31.523 113.157,29.898 26.396,116.656 		"/>
		<polygon id="XMLID_1090_" fill="#FF0000" points="24.771,116.656 113.157,28.271 113.157,26.646 23.145,116.656 		"/>
		<polygon id="XMLID_1091_" fill="#FF0000" points="21.518,116.656 113.157,25.021 113.157,23.394 19.892,116.656 		"/>
		<polygon id="XMLID_1092_" fill="#FF0000" points="18.266,116.656 113.157,21.768 113.157,20.141 16.641,116.656 		"/>
		<polygon id="XMLID_1093_" fill="#FF0000" points="15.014,116.656 113.157,18.513 113.157,16.888 13.387,116.656 		"/>
		<polygon id="XMLID_1094_" fill="#FF0000" points="112.345,14.45 10.949,115.843 10.949,116.656 11.762,116.656 113.157,15.261 
			113.157,14.45 		"/>
		<polygon id="XMLID_1095_" fill="#FF0000" points="109.094,14.45 10.949,112.591 10.949,114.216 110.719,14.45 		"/>
		<polygon id="XMLID_1096_" fill="#FF0000" points="105.837,14.45 10.949,109.34 10.949,110.966 107.466,14.45 		"/>
		<polygon id="XMLID_1097_" fill="#FF0000" points="102.587,14.45 10.949,106.087 10.949,107.712 104.212,14.45 		"/>
		<polygon id="XMLID_1098_" fill="#FF0000" points="99.336,14.45 10.949,102.833 10.949,104.46 100.961,14.45 		"/>
		<polygon id="XMLID_1099_" fill="#FF0000" points="96.082,14.45 10.949,99.582 10.949,101.209 97.707,14.45 		"/>
		<polygon id="XMLID_1100_" fill="#FF0000" points="92.831,14.45 10.949,96.33 10.949,97.957 94.457,14.45 		"/>
		<polygon id="XMLID_1101_" fill="#FF0000" points="89.578,14.45 10.949,93.078 10.949,94.704 91.206,14.45 		"/>
		<polygon id="XMLID_1102_" fill="#FF0000" points="86.326,14.45 10.949,89.827 10.949,91.452 87.952,14.45 		"/>
		<polygon id="XMLID_1103_" fill="#FF0000" points="83.075,14.45 10.949,86.573 10.949,88.198 84.701,14.45 		"/>
		<polygon id="XMLID_1104_" fill="#FF0000" points="79.822,14.45 10.949,83.321 10.949,84.946 81.447,14.45 		"/>
		<polygon id="XMLID_1105_" fill="#FF0000" points="76.568,14.45 10.949,80.067 10.949,81.694 78.193,14.45 		"/>
		<polygon id="XMLID_1106_" fill="#FF0000" points="73.314,14.45 10.949,76.815 10.949,78.442 74.942,14.45 		"/>
		<polygon id="XMLID_1107_" fill="#FF0000" points="70.063,14.45 10.949,73.564 10.949,75.189 71.689,14.45 		"/>
		<polygon id="XMLID_1108_" fill="#FF0000" points="66.812,14.45 10.949,70.313 10.949,71.938 68.438,14.45 		"/>
		<polygon id="XMLID_1109_" fill="#FF0000" points="63.56,14.45 10.949,67.061 10.949,68.687 65.185,14.45 		"/>
		<polygon id="XMLID_1110_" fill="#FF0000" points="60.307,14.45 10.949,63.808 10.949,65.435 61.933,14.45 		"/>
		<polygon id="XMLID_1111_" fill="#FF0000" points="57.055,14.45 10.949,60.557 10.949,62.183 58.681,14.45 		"/>
		<polygon id="XMLID_1112_" fill="#FF0000" points="53.803,14.45 10.949,57.304 10.949,58.929 55.428,14.45 		"/>
		<polygon id="XMLID_1113_" fill="#FF0000" points="50.551,14.45 10.949,54.05 10.949,55.675 52.176,14.45 		"/>
		<polygon id="XMLID_1114_" fill="#FF0000" points="47.3,14.45 10.949,50.798 10.949,52.424 48.925,14.45 		"/>
		<polygon id="XMLID_1115_" fill="#FF0000" points="44.046,14.45 10.949,47.545 10.949,49.172 45.672,14.45 		"/>
		<polygon id="XMLID_1116_" fill="#FF0000" points="40.792,14.45 10.949,44.295 10.949,45.92 42.419,14.45 		"/>
		<polygon id="XMLID_1117_" fill="#FF0000" points="37.542,14.45 10.949,41.042 10.949,42.668 39.167,14.45 		"/>
		<polygon id="XMLID_1118_" fill="#FF0000" points="34.29,14.45 10.949,37.791 10.949,39.417 35.917,14.45 		"/>
		<polygon id="XMLID_1119_" fill="#FF0000" points="31.038,14.45 10.949,34.538 10.949,36.165 32.663,14.45 		"/>
		<polygon id="XMLID_1120_" fill="#FF0000" points="27.785,14.45 10.949,31.287 10.949,32.913 29.412,14.45 		"/>
		<polygon id="XMLID_1121_" fill="#FF0000" points="24.533,14.45 10.949,28.032 10.949,29.658 26.158,14.45 		"/>
		<polygon id="XMLID_1122_" fill="#FF0000" points="21.281,14.45 10.949,24.78 10.949,26.405 22.908,14.45 		"/>
		<polygon id="XMLID_1123_" fill="#FF0000" points="18.029,14.45 10.949,21.528 10.949,23.155 19.654,14.45 		"/>
		<polygon id="XMLID_1124_" fill="#FF0000" points="14.776,14.45 10.949,18.276 10.949,19.902 16.403,14.45 		"/>
		<polygon id="XMLID_1125_" fill="#FF0000" points="11.524,14.45 10.949,15.025 10.949,16.65 13.149,14.45 		"/>
	</g>
</g>
</svg>
