<?xml version="1.0" encoding="utf-8"?>
<!-- Generator: Adobe Illustrator 16.0.0, SVG Export Plug-In . SVG Version: 6.00 Build 0)  -->
<!DOCTYPE svg PUBLIC "-//W3C//DTD SVG 1.1//EN" "http://www.w3.org/Graphics/SVG/1.1/DTD/svg11.dtd">
<svg version="1.1" id="Calque_1" xmlns="http://www.w3.org/2000/svg" xmlns:xlink="http://www.w3.org/1999/xlink" x="0px" y="0px"
	 width="128px" height="128px" viewBox="0 0 128 128" enable-background="new 0 0 128 128" xml:space="preserve">
<g id="Calque_1_2_" display="none">
	<g id="Calque_1_1_" display="inline">
		<path fill="none" stroke="#FF0000" stroke-width="5" stroke-linecap="round" stroke-linejoin="round" stroke-miterlimit="10" d="
			M103.665,114.025c0,2.779-0.479,7.588-5.031,5.031c-4.551-2.562-35.009-31.228-35.009-31.228s-32.879,30.202-35.424,31.228
			c-3.201,1.022-5.031-2.252-5.031-5.031V14.201c0-2.778,2.253-5.031,5.031-5.031h70.433c2.778,0,5.031,2.253,5.031,5.031V114.025z"
			/>
	</g>
	<g id="Calque_3" display="inline">
		<path fill="none" stroke="#FF0000" stroke-width="5" stroke-linecap="round" stroke-linejoin="round" stroke-miterlimit="10" d="
			M67.863,30.12l2.761,8.495c0.587,1.804,2.269,3.025,4.165,3.025h8.932c4.242,0,6.006,5.428,2.574,7.921l-7.227,5.25
			c-1.534,1.115-2.178,3.092-1.59,4.896l2.76,8.494c1.311,4.033-3.307,7.389-6.738,4.896l-7.227-5.25
			c-1.535-1.115-3.613-1.115-5.147,0l-7.227,5.25c-3.432,2.489-8.049-0.863-6.738-4.896l2.761-8.494
			c0.586-1.805-0.057-3.781-1.591-4.896l-7.227-5.25c-3.432-2.493-1.668-7.921,2.573-7.921h8.933c1.897,0,3.579-1.222,4.165-3.025
			l2.76-8.495C60.846,26.085,66.553,26.085,67.863,30.12z"/>
	</g>
	<g id="Calque_2" display="inline">
		
			<polygon fill="none" stroke="#FF0000" stroke-width="5" stroke-linecap="round" stroke-linejoin="round" stroke-miterlimit="10" points="
			64,24.667 57.167,42.833 39.167,42.833 53,55.333 48,73.333 63.625,63.625 79.167,73.333 74.667,55.167 89.5,43.667 70.5,43.667 
					"/>
	</g>
</g>
<path fill="none" stroke="#FF0000" stroke-width="5" stroke-linecap="round" stroke-linejoin="round" stroke-miterlimit="10" d="
	M75.42,52.933c0,3.247-0.809,6.246-2.177,8.677c-2.048,3.635-5.349,7.618-9.071,7.618c-3.664,0-6.918-3.907-8.971-7.442
	c-1.43-2.46-2.278-5.529-2.278-8.853c0-8.105,5.036-14.674,11.249-14.674C70.386,38.259,75.42,44.827,75.42,52.933z"/>
<path fill="none" stroke="#FF0000" stroke-width="5" stroke-linecap="round" stroke-linejoin="round" stroke-miterlimit="10" d="
	M36.261,93.799c0,0-2.988-13.945,17.197-19.226c0,0,3.255,5.519,11.189,5.519h0.067c7.938,0,11.191-5.519,11.191-5.519
	c20.184,5.28,17.139,19.698,17.139,19.698"/>
<path fill="none" stroke="#FF0000" stroke-width="5" stroke-linecap="round" stroke-linejoin="round" stroke-miterlimit="10" d="
	M110.542,66.501c0,25.339-20.543,45.884-45.885,45.884c-25.344,0-45.887-20.545-45.887-45.884c0-25.344,20.543-45.889,45.887-45.889
	C89.999,20.612,110.542,41.157,110.542,66.501z"/>
<line fill="none" stroke="#FF0000" stroke-width="5" stroke-linecap="round" stroke-linejoin="round" stroke-miterlimit="10" x1="63.944" y1="5.274" x2="63.944" y2="29.68"/>
<line fill="none" stroke="#FF0000" stroke-width="5" stroke-linecap="round" stroke-linejoin="round" stroke-miterlimit="10" x1="63.944" y1="100.184" x2="63.944" y2="124.59"/>
<line fill="none" stroke="#FF0000" stroke-width="5" stroke-linecap="round" stroke-linejoin="round" stroke-miterlimit="10" x1="124.315" y1="66.499" x2="99.909" y2="66.499"/>
<line fill="none" stroke="#FF0000" stroke-width="5" stroke-linecap="round" stroke-linejoin="round" stroke-miterlimit="10" x1="29.405" y1="66.499" x2="4.999" y2="66.499"/>
</svg>
