<?xml version="1.0" encoding="utf-8"?>
<!-- Generator: Adobe Illustrator 16.0.0, SVG Export Plug-In . SVG Version: 6.00 Build 0)  -->
<!DOCTYPE svg PUBLIC "-//W3C//DTD SVG 1.1//EN" "http://www.w3.org/Graphics/SVG/1.1/DTD/svg11.dtd">
<svg version="1.1" id="Calque_1" xmlns="http://www.w3.org/2000/svg" xmlns:xlink="http://www.w3.org/1999/xlink" x="0px" y="0px"
	 width="128px" height="128px" viewBox="0 0 128 128" enable-background="new 0 0 128 128" xml:space="preserve">
<g>
	<path fill="none" stroke="#FF0000" stroke-width="5" stroke-linecap="round" stroke-linejoin="round" stroke-miterlimit="10" d="
		M31.101,81.042l4.453,8.012c0.55,0.988,1.507,1.685,2.618,1.901l8.995,1.76c2.954,0.576,4.123,4.176,2.072,6.38l-6.242,6.709
		c-0.771,0.829-1.138,1.955-1.001,3.078l1.107,9.098c0.362,2.988-2.697,5.212-5.428,3.944l-8.312-3.865
		c-1.025-0.477-2.209-0.477-3.235,0l-8.311,3.865c-2.729,1.268-5.791-0.956-5.427-3.944l1.107-9.098
		c0.136-1.123-0.229-2.249-1-3.078l-6.243-6.709c-2.051-2.204-0.881-5.804,2.073-6.38l8.995-1.76
		c1.11-0.217,2.068-0.913,2.618-1.901l4.453-8.012C25.854,78.411,29.639,78.411,31.101,81.042z"/>
	<path fill="none" stroke="#FF0000" stroke-width="5" stroke-linecap="round" stroke-linejoin="round" stroke-miterlimit="10" d="
		M104.595,81.042l4.452,8.012c0.551,0.988,1.508,1.685,2.619,1.901l8.994,1.76c2.955,0.576,4.123,4.176,2.072,6.38l-6.242,6.709
		c-0.771,0.829-1.137,1.955-1,3.078l1.107,9.098c0.361,2.988-2.697,5.212-5.428,3.944l-8.313-3.865
		c-1.025-0.477-2.209-0.477-3.234,0l-8.311,3.865c-2.73,1.268-5.791-0.956-5.428-3.944l1.107-9.098
		c0.136-1.123-0.229-2.249-1.001-3.078l-6.243-6.709c-2.051-2.204-0.881-5.804,2.073-6.38l8.995-1.76
		c1.109-0.217,2.068-0.913,2.617-1.901l4.453-8.012C99.348,78.411,103.133,78.411,104.595,81.042z"/>
</g>
<g>
	
		<line fill="none" stroke="#FF0000" stroke-width="5" stroke-linejoin="round" stroke-miterlimit="10" x1="41.529" y1="107.726" x2="87.459" y2="107.726"/>
	<g>
		<path fill="none" stroke="#FF0000" stroke-width="5" stroke-linecap="round" stroke-linejoin="round" stroke-miterlimit="10" d="
			M69.106,7.518l6.124,11.019c0.756,1.36,2.073,2.317,3.602,2.616l12.371,2.419c4.063,0.794,5.671,5.744,2.851,8.775l-8.586,9.229
			c-1.061,1.14-1.564,2.688-1.376,4.233l1.522,12.513c0.499,4.11-3.71,7.169-7.465,5.425L66.718,58.43
			c-1.41-0.656-3.039-0.656-4.45,0l-11.431,5.315c-3.754,1.745-7.964-1.314-7.465-5.425l1.522-12.513
			c0.188-1.545-0.315-3.094-1.375-4.233l-8.586-9.229c-2.82-3.031-1.212-7.981,2.851-8.775l12.372-2.419
			c1.527-0.299,2.844-1.256,3.601-2.616L59.88,7.518C61.891,3.898,67.096,3.898,69.106,7.518z"/>
		
			<line fill="none" stroke="#FF0000" stroke-width="5" stroke-linejoin="round" stroke-miterlimit="10" x1="64.493" y1="108.411" x2="64.493" y2="55.969"/>
	</g>
</g>
</svg>
