<?xml version="1.0" encoding="utf-8"?>
<!-- Generator: Adobe Illustrator 16.0.0, SVG Export Plug-In . SVG Version: 6.00 Build 0)  -->
<!DOCTYPE svg PUBLIC "-//W3C//DTD SVG 1.1//EN" "http://www.w3.org/Graphics/SVG/1.1/DTD/svg11.dtd">
<svg version="1.1" id="Calque_1" xmlns="http://www.w3.org/2000/svg" xmlns:xlink="http://www.w3.org/1999/xlink" x="0px" y="0px"
	 width="128px" height="128px" viewBox="0 0 128 128" enable-background="new 0 0 128 128" xml:space="preserve">
<path fill="none" stroke="#FF0000" stroke-width="5" stroke-linecap="round" stroke-linejoin="round" stroke-miterlimit="10" d="
	M104.121,91.645v24.521c0,4.22-3.452,7.673-7.67,7.673h-64.9c-4.221,0-7.671-3.453-7.671-7.673V13.504
	c0-4.219,3.449-7.669,7.671-7.669h64.9c4.218,0,7.67,3.45,7.67,7.669V91.645z"/>
<path fill="#FF0000" d="M54.112,24.451c-1.313-4.345-10.49-11.988-10.49-11.988s-9.176,7.644-10.49,11.988
	c-1.123,3.106,0,7.818,4.093,8.334c2.718,0.343,2.958-1.2,4.9-2.278c-1.51,2.149-1.439,5.087-3.714,6.626h10.42
	c-2.273-1.54-2.202-4.477-3.712-6.626c1.941,1.078,2.182,2.621,4.898,2.278C54.112,32.269,55.236,27.557,54.112,24.451z"/>
<g>
	<path fill="#FF0000" d="M83.701,35.688c0,0-9.249-7.471-10.569-11.72c-1.134-3.035,0-7.64,4.124-8.146
		c4.127-0.503,6.445,3.178,6.445,3.178s2.321-3.682,6.445-3.178c4.127,0.505,5.26,5.11,4.127,8.146
		C92.95,28.217,83.701,35.688,83.701,35.688z"/>
</g>
<g>
	<path fill="#FF0000" d="M30.885,102.5c0,0,3.473-1.868,7.171-5.566c3.699-3.699,5.565-7.173,5.565-7.173s1.867,3.474,5.567,7.173
		c3.698,3.698,7.17,5.566,7.17,5.566s-3.472,1.866-7.17,5.564c-3.7,3.7-5.567,7.172-5.567,7.172s-1.866-3.472-5.565-7.172
		C34.358,104.366,30.885,102.5,30.885,102.5z"/>
</g>
<path fill="#FF0000" d="M89.181,98.217c-0.212,0-0.417,0.016-0.621,0.037c0.006-0.097,0.017-0.192,0.017-0.289v-2.485
	c0-2.763-2.334-5.023-5.187-5.023h-0.001c-2.853,0-5.185,2.261-5.185,5.023v2.485c0,0.086,0.01,0.17,0.015,0.252
	c-0.005,0-0.01,0-0.015,0c-3.031,0-5.487,2.382-5.487,5.316c0,2.937,2.456,5.317,5.487,5.317c1.616,0,3.066-0.683,4.071-1.761
	c0.019,0.012,0.036,0.024,0.055,0.037c-0.24,0.818-1.616,5.363-2.72,5.559v1.07h8.163v-1.07c-1.104-0.195-2.478-4.74-2.719-5.559
	c0.021-0.013,0.035-0.025,0.054-0.037c1.005,1.078,2.455,1.761,4.072,1.761c3.031,0,5.486-2.381,5.486-5.317
	C94.667,100.599,92.212,98.217,89.181,98.217z"/>
</svg>
