<?xml version="1.0" encoding="utf-8"?>
<!-- Generator: Adobe Illustrator 16.0.0, SVG Export Plug-In . SVG Version: 6.00 Build 0)  -->
<!DOCTYPE svg PUBLIC "-//W3C//DTD SVG 1.1//EN" "http://www.w3.org/Graphics/SVG/1.1/DTD/svg11.dtd">
<svg version="1.1" id="Calque_1" xmlns="http://www.w3.org/2000/svg" xmlns:xlink="http://www.w3.org/1999/xlink" x="0px" y="0px"
	 width="128px" height="128px" viewBox="-53 -53 128 128" enable-background="new -53 -53 128 128" xml:space="preserve">
<g id="Layer_1_1_">
	<path id="path2" fill="#FF0000" d="M-18.873,65.748c7.63,0,14.804-2.973,20.197-8.36L62.62-3.899
		c9.103-9.103,9.103-23.918,0-33.021c-9.104-9.103-23.921-9.103-33.023,0l-54.491,54.487c-3.423,3.432-5.308,7.978-5.313,12.818
		c0,4.852,1.885,9.397,5.308,12.818c3.423,3.431,7.98,5.311,12.824,5.311c4.841,0,9.395-1.88,12.818-5.311L45.387-1.438
		l-3.485-3.486L-2.744,39.724c-2.489,2.491-5.808,3.868-9.343,3.868c-3.524,0-6.843-1.377-9.332-3.868
		c-2.489-2.486-3.866-5.809-3.866-9.332c0.005-3.53,1.382-6.852,3.871-9.344l54.485-54.493c7.19-7.185,18.883-7.185,26.063,0
		c7.18,7.182,7.18,18.877,0,26.06L-2.151,53.902c-4.469,4.469-10.411,6.928-16.722,6.928c-13.042,0-23.65-10.61-23.65-23.647
		c0-6.321,2.456-12.261,6.925-16.729l56.364-56.354l-3.485-3.48l-56.359,56.359c-5.393,5.388-8.368,12.566-8.368,20.205
		C-47.446,52.93-34.622,65.748-18.873,65.748z"/>
</g>
</svg>
