<?xml version="1.0" encoding="utf-8"?>
<!-- Generator: Adobe Illustrator 16.0.0, SVG Export Plug-In . SVG Version: 6.00 Build 0)  -->
<!DOCTYPE svg PUBLIC "-//W3C//DTD SVG 1.1//EN" "http://www.w3.org/Graphics/SVG/1.1/DTD/svg11.dtd">
<svg version="1.1" id="Calque_1" xmlns="http://www.w3.org/2000/svg" xmlns:xlink="http://www.w3.org/1999/xlink" x="0px" y="0px"
	 width="128px" height="128px" viewBox="0 0 128 128" enable-background="new 0 0 128 128" xml:space="preserve">
<g id="Calque_1_2_" display="none">
	<g id="Calque_1_1_" display="inline">
		<path fill="none" stroke="#FF0000" stroke-width="5" stroke-linecap="round" stroke-linejoin="round" stroke-miterlimit="10" d="
			M103.665,114.025c0,2.779-0.479,7.588-5.031,5.031c-4.551-2.563-35.009-31.229-35.009-31.229s-32.879,30.202-35.424,31.229
			c-3.201,1.021-5.031-2.252-5.031-5.031V14.201c0-2.778,2.253-5.031,5.031-5.031h70.433c2.778,0,5.031,2.253,5.031,5.031V114.025z"
			/>
	</g>
	<g id="Calque_3" display="inline">
		<path fill="none" stroke="#FF0000" stroke-width="5" stroke-linecap="round" stroke-linejoin="round" stroke-miterlimit="10" d="
			M67.863,30.12l2.761,8.495c0.587,1.804,2.269,3.025,4.165,3.025h8.932c4.242,0,6.006,5.428,2.574,7.921l-7.227,5.25
			c-1.534,1.115-2.178,3.092-1.59,4.896l2.76,8.494c1.311,4.033-3.307,7.389-6.738,4.896l-7.227-5.25
			c-1.535-1.115-3.613-1.115-5.147,0l-7.227,5.25c-3.432,2.484-8.049-0.863-6.738-4.896l2.761-8.494
			c0.586-1.805-0.057-3.781-1.591-4.896l-7.227-5.25c-3.432-2.493-1.668-7.921,2.573-7.921h8.933c1.897,0,3.579-1.222,4.165-3.025
			l2.76-8.495C60.846,26.085,66.553,26.085,67.863,30.12z"/>
	</g>
	<g id="Calque_2" display="inline">
		
			<polygon fill="none" stroke="#FF0000" stroke-width="5" stroke-linecap="round" stroke-linejoin="round" stroke-miterlimit="10" points="
			64,24.667 57.167,42.833 39.167,42.833 53,55.333 48,73.333 63.625,63.625 79.167,73.333 74.667,55.167 89.5,43.667 70.5,43.667 
					"/>
	</g>
</g>
<path fill="#E42320" d="M75.034,34.449c-3.412-1.265-7.103-1.958-10.954-1.958c-4.473,0-8.729,0.932-12.583,2.612L33.339,9.709
	c9.073-5.151,19.564-8.092,30.742-8.092c9.917,0,19.293,2.313,27.62,6.431c0.656,0.325,1.308,0.662,1.951,1.009L75.034,34.449z"/>
<path opacity="0.6" fill="#E42320" enable-background="new    " d="M126.463,64c0-18.708-8.232-35.491-21.275-46.926L86.182,41.546
	c5.805,5.713,9.405,13.663,9.405,22.454H126.463z"/>
<path fill="#E42320" d="M32.57,64c0-8.55,3.404-16.303,8.93-21.98l-18.348-25.1C10.007,28.358,1.698,45.208,1.698,64H32.57z"/>
<path fill="none" stroke="#FF0000" stroke-width="5" stroke-linecap="round" stroke-linejoin="round" stroke-miterlimit="10" d="
	M71.663,49.406l8.188,14.732c1.011,1.817,2.771,3.098,4.814,3.498l16.54,3.233c5.433,1.062,7.581,7.68,3.811,11.732L93.538,94.939
	c-1.418,1.523-2.091,3.595-1.84,5.66l2.035,16.729c0.668,5.495-4.96,9.585-9.979,7.252l-15.284-7.105
	c-1.885-0.878-4.063-0.878-5.949,0l-15.282,7.105c-5.02,2.333-10.648-1.757-9.98-7.252l2.035-16.729
	c0.251-2.065-0.421-4.137-1.839-5.66l-11.48-12.338c-3.771-4.053-1.62-10.671,3.812-11.732l16.541-3.233
	c2.042-0.4,3.803-1.681,4.814-3.498l8.188-14.732C62.017,44.567,68.975,44.567,71.663,49.406z"/>
</svg>
