<?xml version="1.0" encoding="utf-8"?>
<!-- Generator: Adobe Illustrator 16.0.0, SVG Export Plug-In . SVG Version: 6.00 Build 0)  -->
<!DOCTYPE svg PUBLIC "-//W3C//DTD SVG 1.1//EN" "http://www.w3.org/Graphics/SVG/1.1/DTD/svg11.dtd">
<svg version="1.1" id="Calque_1" xmlns="http://www.w3.org/2000/svg" xmlns:xlink="http://www.w3.org/1999/xlink" x="0px" y="0px"
	 width="128px" height="128px" viewBox="0 0 128 128" enable-background="new 0 0 128 128" xml:space="preserve">
<path fill="none" stroke="#FF0000" stroke-width="5" stroke-linecap="round" stroke-linejoin="round" stroke-miterlimit="10" d="
	M89.053,122.528H38.948c-3.259,0-5.922-2.666-5.922-5.923V37.349c0-3.257,2.663-5.92,5.922-5.92h50.104
	c3.256,0,5.922,2.664,5.922,5.92v79.256C94.975,119.862,92.309,122.528,89.053,122.528z"/>
<path fill="#FF0000" d="M82.269,76.396C79.982,69.106,64,56.281,64,56.281S48.019,69.106,45.732,76.396
	c-1.957,5.211,0,13.115,7.128,13.983c4.733,0.574,5.151-2.016,8.533-3.825c-2.63,3.609-2.506,8.537-6.468,11.12h18.147
	c-3.96-2.583-3.837-7.511-6.466-11.12c3.38,1.81,3.8,4.399,8.531,3.825C82.269,89.512,84.226,81.607,82.269,76.396z"/>
<path opacity="0.4" fill="#FF0000" enable-background="new    " d="M17.32,57.696H6.289c0-14.694,5.529-28.695,14.496-38.144
	l8.055,7.539C21.793,34.487,17.32,45.811,17.32,57.696z"/>
<path opacity="0.6" fill="#FF0000" enable-background="new    " d="M34.285,21.557l-7.249-8.315
	c3.878-3.261,9.312-6.608,15.208-9.01C48.329,1.753,54.762,0.346,60.188,0l0.497,11.021C51.383,11.54,41.256,15.598,34.285,21.557z"
	/>
<path opacity="0.8" fill="#FF0000" enable-background="new    " d="M94.854,22.128c-7.174-6.081-17.465-10.437-26.582-11.079
	L68.88,0.035c11.668,0.782,24.396,6.169,33.448,13.979L94.854,22.128z"/>
<path fill="#FF0000" d="M121.711,57.696H110.68c0-11.408-4.16-22.392-10.42-29.464l8.262-7.313
	C116.564,30.012,121.711,43.592,121.711,57.696z"/>
</svg>
