<?xml version="1.0" encoding="UTF-8" standalone="no"?>
<svg
   xmlns:dc="http://purl.org/dc/elements/1.1/"
   xmlns:cc="http://creativecommons.org/ns#"
   xmlns:rdf="http://www.w3.org/1999/02/22-rdf-syntax-ns#"
   xmlns:svg="http://www.w3.org/2000/svg"
   xmlns="http://www.w3.org/2000/svg"
   xmlns:sodipodi="http://sodipodi.sourceforge.net/DTD/sodipodi-0.dtd"
   xmlns:inkscape="http://www.inkscape.org/namespaces/inkscape"
   viewBox="0 0 50 50"
   version="1.1"
   id="svg1115"
   sodipodi:docname="iconLocalizationTranslator.svg"
   inkscape:version="1.0.2-2 (e86c870879, 2021-01-15)">
  <metadata
     id="metadata1121">
    <rdf:RDF>
      <cc:Work
         rdf:about="">
        <dc:format>image/svg+xml</dc:format>
        <dc:type
           rdf:resource="http://purl.org/dc/dcmitype/StillImage" />
        <dc:title></dc:title>
      </cc:Work>
    </rdf:RDF>
  </metadata>
  <defs
     id="defs1119" />
  <sodipodi:namedview
     pagecolor="#ffffff"
     bordercolor="#666666"
     borderopacity="1"
     objecttolerance="10"
     gridtolerance="10"
     guidetolerance="10"
     inkscape:pageopacity="0"
     inkscape:pageshadow="2"
     inkscape:window-width="1920"
     inkscape:window-height="1001"
     id="namedview1117"
     showgrid="false"
     inkscape:zoom="8.3"
     inkscape:cx="9.9394026"
     inkscape:cy="38.178406"
     inkscape:window-x="-9"
     inkscape:window-y="-9"
     inkscape:window-maximized="1"
     inkscape:current-layer="svg1115" />
  <path
     style="line-height:normal;text-indent:0;text-align:start;text-decoration-line:none;text-decoration-style:solid;text-decoration-color:#000;text-transform:none;block-progression:tb;isolation:auto;mix-blend-mode:normal;opacity:1;fill:#ff0000;fill-opacity:1"
     d="M 32.974609 3 C 32.515319 3.0086229 32.074521 3.0386149 31.642578 3.078125 C 31.479808 3.0923655 31.319393 3.1085889 31.160156 3.1269531 C 30.928678 3.1548372 30.703738 3.1898244 30.480469 3.2265625 C 27.624626 3.6781111 25.381292 4.8379029 23.783203 6.6875 C 23.745641 6.7302258 23.708611 6.7730742 23.671875 6.8164062 C 23.5783 6.9287031 23.473719 7.0292695 23.384766 7.1464844 C 23.050756 7.5866374 22.765675 8.050749 22.511719 8.5292969 C 22.499098 8.5530006 22.485094 8.575791 22.472656 8.5996094 C 22.376745 8.7837036 22.290057 8.9713131 22.205078 9.1601562 C 22.18912 9.1958399 22.169873 9.2297156 22.154297 9.265625 C 22.149321 9.2770956 22.145563 9.2892912 22.140625 9.3007812 C 20.484094 13.123197 20.96853 17.834144 21.857422 21.556641 C 21.731013 21.661768 21.603046 21.791029 21.484375 21.945312 C 21.484375 21.945312 21.482422 21.947266 21.482422 21.947266 C 21.381869 22.079138 21.295464 22.229649 21.222656 22.394531 C 21.089667 22.683377 20.998684 23.033638 20.982422 23.46875 C 20.982422 23.46875 20.982422 23.470703 20.982422 23.470703 C 20.982422 23.470703 20.982422 23.472656 20.982422 23.472656 C 20.975169 23.672604 20.977631 23.883288 21.005859 24.119141 C 21.046128 24.453268 21.10006 24.768508 21.160156 25.074219 C 21.176878 25.159741 21.196735 25.237691 21.214844 25.320312 C 21.258669 25.519837 21.305347 25.714779 21.357422 25.900391 C 21.38439 25.996026 21.412425 26.088507 21.441406 26.179688 C 21.499436 26.363809 21.560777 26.538876 21.626953 26.707031 C 21.649026 26.762441 21.670468 26.819571 21.693359 26.873047 C 22.061885 27.744721 22.5383 28.386952 23.095703 28.724609 C 23.527703 31.012609 24.938047 33.212484 25.998047 34.396484 L 25.998047 41.355469 L 15.585938 46.089844 A 1.0001 1.0001 0 0 0 16.097656 48 L 49 48 A 1.0001163 1.0001163 0 0 0 49.330078 47.943359 A 1.0001163 1.0001163 0 0 0 49.332031 47.943359 A 1.0001163 1.0001163 0 0 0 49.621094 47.783203 C 49.622542 47.782056 49.623558 47.780452 49.625 47.779297 A 1.0001163 1.0001163 0 0 0 49.841797 47.541016 C 49.842887 47.539321 49.84267 47.536858 49.84375 47.535156 A 1.0001163 1.0001163 0 0 0 49.972656 47.232422 A 1.0001163 1.0001163 0 0 0 49.974609 47.228516 C 49.975224 47.225902 49.974017 47.223317 49.974609 47.220703 A 1.0001163 1.0001163 0 0 0 49.994141 46.898438 C 49.993664 46.89381 49.992728 46.889382 49.992188 46.884766 A 1.0001163 1.0001163 0 0 0 49.90625 46.576172 C 49.90564 46.574869 49.904913 46.573565 49.904297 46.572266 A 1.0001163 1.0001163 0 0 0 49.71875 46.304688 A 1.0001163 1.0001163 0 0 0 49.447266 46.105469 L 40 41.382812 L 40 34.396484 C 41.06 33.213484 42.470344 31.012609 42.902344 28.724609 C 43.32166 28.471247 43.694526 28.043881 44.011719 27.480469 C 44.018128 27.469167 44.022932 27.454773 44.029297 27.443359 C 44.12444 27.271287 44.214795 27.088015 44.298828 26.890625 C 44.327714 26.823623 44.35328 26.751701 44.380859 26.681641 C 44.44174 26.525151 44.500801 26.363538 44.554688 26.193359 C 44.585005 26.098313 44.614463 26.002254 44.642578 25.902344 C 44.692771 25.723414 44.736764 25.535631 44.779297 25.34375 C 44.800589 25.247332 44.824356 25.155086 44.84375 25.054688 C 44.901933 24.755609 44.952898 24.445284 44.992188 24.119141 C 45.020593 23.882428 45.024904 23.67127 45.017578 23.470703 C 45.017518 23.469352 45.01764 23.468147 45.017578 23.466797 C 45.001484 23.03908 44.910717 22.696256 44.78125 22.410156 C 44.727104 22.285517 44.660028 22.176702 44.589844 22.070312 C 44.566896 22.036341 44.549298 21.992591 44.525391 21.960938 C 44.522343 21.956876 44.52065 21.951294 44.517578 21.947266 C 44.500906 21.9254 44.489855 21.923597 44.474609 21.90625 C 44.379118 21.788486 44.28196 21.676815 44.181641 21.589844 C 44.455487 20.692336 44.755853 19.519771 44.994141 18.240234 C 45.032981 18.038146 45.068896 17.837425 45.103516 17.628906 C 45.128992 17.471449 45.156958 17.320267 45.179688 17.160156 C 45.249745 16.67718 45.304929 16.181109 45.341797 15.675781 C 45.348149 15.589028 45.350264 15.503007 45.355469 15.416016 C 45.381484 14.977412 45.390476 14.534706 45.382812 14.087891 C 45.380573 13.953427 45.382738 13.819548 45.376953 13.685547 C 45.375415 13.64959 45.376793 13.614099 45.375 13.578125 C 45.37233 13.524551 45.362635 13.471529 45.359375 13.417969 C 45.340015 13.105131 45.308936 12.795371 45.267578 12.488281 C 45.256242 12.402959 45.249531 12.317371 45.236328 12.232422 C 45.180444 11.876684 45.106162 11.527511 45.015625 11.185547 C 44.956547 10.961901 44.894561 10.740977 44.818359 10.523438 C 44.817877 10.522057 44.816889 10.520911 44.816406 10.519531 C 44.728793 10.269831 44.629959 10.024647 44.517578 9.7851562 C 44.505215 9.7587193 44.491181 9.7332992 44.478516 9.7070312 C 44.383871 9.5113835 44.278973 9.3199944 44.166016 9.1328125 C 44.149942 9.1061377 44.137538 9.0772323 44.121094 9.0507812 C 44.096071 9.0105213 44.066726 8.9750467 44.041016 8.9355469 C 44.001022 8.8741527 43.966011 8.8103054 43.923828 8.75 C 43.89258 8.7053275 43.854914 8.6648423 43.822266 8.6210938 C 43.751399 8.5249391 43.678882 8.4309563 43.603516 8.3398438 C 43.573276 8.3044632 43.542938 8.269065 43.511719 8.234375 C 42.547196 7.1201372 41.238288 6.3951352 39.59375 6.0839844 C 39.228216 5.5899352 38.707135 5.1093572 38.095703 4.6738281 C 37.999009 4.6026431 37.903136 4.5307989 37.800781 4.4628906 C 37.729422 4.4165736 37.653781 4.3749078 37.580078 4.3300781 C 37.447686 4.2483943 37.322829 4.1620158 37.181641 4.0859375 C 37.118912 4.0521367 37.048489 4.0248504 36.984375 3.9921875 C 36.894798 3.9465831 36.80106 3.9064322 36.708984 3.8632812 C 36.499267 3.7648505 36.288493 3.6703656 36.066406 3.5859375 C 35.968725 3.5488172 35.867284 3.5184509 35.767578 3.484375 C 35.544764 3.4082568 35.322521 3.3348778 35.089844 3.2753906 C 34.963041 3.242789 34.832192 3.222491 34.703125 3.1953125 C 34.490292 3.1508902 34.279619 3.102692 34.060547 3.0742188 C 33.793581 3.0388091 33.520641 3.0267726 33.248047 3.0175781 C 33.164503 3.0149786 33.084137 3 33 3 L 32.990234 3 C 32.987615 2.9999968 32.983088 3.0000006 32.980469 3 C 32.978456 3.0000371 32.976621 2.9999623 32.974609 3 z M 13.568359 3.2011719 C 12.569828 3.2167909 11.557139 3.3190408 10.554688 3.5195312 C 6.544875 4.3214937 2.6667314 6.835743 1.0507812 11.683594 C -0.89929222 17.532801 1.2521672 22.362976 3.8222656 26.007812 C 3.3391282 26.881683 2.6556526 27.969577 1.9824219 28.953125 C 1.5938512 29.520802 1.234737 30.034212 0.96679688 30.425781 C 0.8328268 30.621566 0.72184719 30.78462 0.63476562 30.921875 C 0.59122482 30.990505 0.55475382 31.050997 0.515625 31.123047 C 0.4960606 31.159067 0.47529785 31.197537 0.44921875 31.259766 C 0.42313965 31.321996 0.36328125 31.362812 0.36328125 31.671875 C 0.36328125 31.672975 0.54619143 32.250984 0.546875 32.251953 C 0.54721678 32.252438 0.65186682 32.379896 0.70117188 32.423828 C 0.75047688 32.467758 0.79506598 32.499768 0.8359375 32.525391 C 0.99942355 32.627895 1.0906852 32.640823 1.1582031 32.65625 C 1.293239 32.6871 1.3477767 32.684237 1.4042969 32.685547 C 1.5173372 32.688147 1.60175 32.683248 1.703125 32.673828 C 1.9058751 32.654928 2.1543169 32.618408 2.4570312 32.5625 C 3.06246 32.450681 3.8698391 32.258896 4.7519531 31.960938 C 6.3104847 31.434499 8.04475 30.503742 9.2871094 29.058594 C 9.8515245 29.238343 10.83446 29.58096 12.595703 29.677734 C 14.687474 29.79267 17.341273 29.494533 19.599609 27.800781 A 1.0003905 1.0003905 0 0 0 18.400391 26.199219 C 16.658727 27.505467 14.512557 27.779001 12.705078 27.679688 C 10.897599 27.580378 9.4461505 27.096442 9.3339844 27.056641 L 8.5996094 26.796875 L 8.1679688 27.445312 C 7.3853827 28.619191 5.6651 29.541575 4.1113281 30.066406 C 3.8916513 30.140606 3.749026 30.156706 3.5410156 30.216797 C 3.5764556 30.165187 3.5967695 30.134687 3.6328125 30.082031 C 4.4236712 28.926636 5.3414322 27.553464 5.8945312 26.447266 L 6.1679688 25.898438 L 5.8027344 25.404297 C 3.2312345 21.931077 1.1507256 17.710951 2.9492188 12.316406 C 4.3332686 8.164257 7.455125 6.1785063 10.945312 5.4804688 C 14.435501 4.7824311 18.263752 5.5238768 20.486328 6.8574219 A 1.0001 1.0001 0 1 0 21.513672 5.1425781 C 19.430604 3.8927372 16.563952 3.1543141 13.568359 3.2011719 z M 12.921875 8.9863281 A 1.0001 1.0001 0 0 0 11.935547 10 L 11.935547 12.431641 L 7.9667969 12.431641 A 1.0001 1.0001 0 1 0 7.9667969 14.431641 L 15.839844 14.431641 C 15.714994 14.954512 15.50024 15.628373 15.082031 16.408203 C 14.713935 17.094591 14.194077 17.834618 13.470703 18.558594 C 12.29222 17.358203 11.654297 16.439453 11.654297 16.439453 A 1.0001 1.0001 0 0 0 10.806641 15.994141 A 1.0001 1.0001 0 0 0 10.003906 17.570312 C 10.003906 17.570312 10.681149 18.546652 11.919922 19.828125 C 11.037796 20.422183 9.9681452 20.972642 8.640625 21.427734 A 1.0001 1.0001 0 1 0 9.2890625 23.318359 C 10.947902 22.749686 12.290927 22.020982 13.390625 21.222656 C 13.999507 21.754869 14.672305 22.297995 15.431641 22.822266 A 1.0001 1.0001 0 1 0 16.568359 21.177734 C 15.964759 20.760989 15.429947 20.333419 14.931641 19.910156 C 15.776025 19.058945 16.402779 18.179437 16.845703 17.353516 C 17.466461 16.195989 17.739784 15.159681 17.873047 14.431641 L 18.810547 14.431641 A 1.0001 1.0001 0 1 0 18.810547 12.431641 L 17.171875 12.431641 A 1.0001 1.0001 0 0 0 17.003906 12.416016 A 1.0001 1.0001 0 0 0 16.833984 12.431641 L 13.935547 12.431641 L 13.935547 10 A 1.0001 1.0001 0 0 0 12.921875 8.9863281 z M 33 11 C 33.426 11 33.806312 11.270828 33.945312 11.673828 L 38.945312 26.117188 C 39.126312 26.639187 38.848172 27.209625 38.326172 27.390625 C 38.218172 27.427625 38.108 27.445312 38 27.445312 C 37.586 27.445312 37.197688 27.185484 37.054688 26.771484 L 35.748047 23 L 30.25 23 L 28.945312 26.771484 C 28.763313 27.292484 28.195828 27.565672 27.673828 27.388672 C 27.152828 27.207672 26.873687 26.638188 27.054688 26.117188 L 32.054688 11.673828 C 32.193687 11.270828 32.574 11 33 11 z M 33 15.056641 L 30.943359 21 L 35.056641 21 L 33 15.056641 z"
     font-weight="400"
     font-family="sans-serif"
     white-space="normal"
     overflow="visible"
     id="path1113" />
</svg>
