<?xml version="1.0" encoding="UTF-8" standalone="no"?>
<svg
   xmlns:dc="http://purl.org/dc/elements/1.1/"
   xmlns:cc="http://creativecommons.org/ns#"
   xmlns:rdf="http://www.w3.org/1999/02/22-rdf-syntax-ns#"
   xmlns:svg="http://www.w3.org/2000/svg"
   xmlns="http://www.w3.org/2000/svg"
   xmlns:sodipodi="http://sodipodi.sourceforge.net/DTD/sodipodi-0.dtd"
   xmlns:inkscape="http://www.inkscape.org/namespaces/inkscape"
   height="128"
   viewBox="0 0 512 512"
   width="128"
   version="1.1"
   id="svg82"
   sodipodi:docname="iconLocalizationItemType.svg"
   inkscape:version="1.0.2-2 (e86c870879, 2021-01-15)">
  <metadata
     id="metadata88">
    <rdf:RDF>
      <cc:Work
         rdf:about="">
        <dc:format>image/svg+xml</dc:format>
        <dc:type
           rdf:resource="http://purl.org/dc/dcmitype/StillImage" />
      </cc:Work>
    </rdf:RDF>
  </metadata>
  <defs
     id="defs86" />
  <sodipodi:namedview
     pagecolor="#ffffff"
     bordercolor="#666666"
     borderopacity="1"
     objecttolerance="10"
     gridtolerance="10"
     guidetolerance="10"
     inkscape:pageopacity="0"
     inkscape:pageshadow="2"
     inkscape:window-width="1920"
     inkscape:window-height="1001"
     id="namedview84"
     showgrid="false"
     inkscape:zoom="4.5851455"
     inkscape:cx="78.225237"
     inkscape:cy="57.524127"
     inkscape:window-x="-9"
     inkscape:window-y="-9"
     inkscape:window-maximized="1"
     inkscape:current-layer="svg82" />
  <path
     style="fill:#FF0000;"
     d="m214.057 240h-33.107a237.173 237.173 0 0 0 2.958 30.148z"
     id="path50" />
  <path
     style="fill:#FF0000;"
     d="m312.992 141.063a234.1 234.1 0 0 0 -43.992-68.532c-1.661-.134-3.327-.251-5-.333v79.728c13.519-.222 27.087-1.01 40.476-2.346z"
     id="path60" />
  <path
     style="fill:#FF0000;"
     d="m350.893 103.163a158.8 158.8 0 0 0 -57.6-26.8 249.34 249.34 0 0 1 31.87 52.527z"
     id="path62" />
  <path
     style="fill:#FF0000;"
     d="m164.938 240h-68.729a160.316 160.316 0 0 0 30.958 86.89l43.033-43.032a252.685 252.685 0 0 1 -5.262-43.858z"
     id="path66" />
  <path
     style="fill:#FF0000;"
     d="m384.834 137.11-223.727 223.727a158.85 158.85 0 0 0 78.9 30.372 162.556 162.556 0 0 0 31.978 0c2.209-.219 4.459-.493 6.881-.84a8 8 0 0 1 9.132 7.92v29.25l58.443-63.313a8.048 8.048 0 0 1 1.286-1.125 160.04 160.04 0 0 0 42.058-218.883q-2.362-3.6-4.951-7.108zm-128.834 190.89a16 16 0 1 1 16-16 16 16 0 0 1 -16 16zm48 0a16 16 0 1 1 16-16 16 16 0 0 1 -16 16zm48 0a16 16 0 1 1 16-16 16 16 0 0 1 -16 16z"
     id="path68" />
  <path
     style="fill:#FF0000;"
     d="m82.37 72.85a224.007 224.007 0 0 0 -25.438 288.237l-6.76-1a8 8 0 1 0 -2.344 15.828l27 4a8 8 0 0 0 9.11-6.922l3-24a8 8 0 0 0 -15.876-1.984l-.676 5.4a208.021 208.021 0 0 1 23.244-268.192 8 8 0 1 0 -11.26-11.367z"
     id="path70" />
  <path
     style="fill:#FF0000;"
     d="m448.521 96h6.013a8 8 0 0 0 0-16h-24a8 8 0 0 0 -8 8v24a8 8 0 0 0 16 0v-2.638a208 208 0 0 1 -20.218 269.008 8 8 0 0 0 11.368 11.26 224 224 0 0 0 18.837-293.63z"
     id="path72" />
  <path
     fill="#ff0000"
     d="M 269.66,6.78 H 20.664 c -6.628,0 -12,5.376 -12,12 v 249 c 0,6.628 5.372,12 12,12 h 249 c 6.632,0 12,-5.372 12,-12 v -249 c -0.004,-6.624 -5.372,-12 -12.004,-12 z M 69.584,221.072 c -11.072,0 -20.048,-8.968 -20.048,-20.04 0,-11.072 8.976,-20.04 20.048,-20.04 11.064,0 20.04,8.968 20.04,20.04 0,11.072 -8.98,20.04 -20.04,20.04 z m 0,-60.952 c -11.072,0 -20.048,-8.972 -20.048,-20.04 0,-11.072 8.976,-20.044 20.048,-20.044 11.064,0 20.04,8.972 20.04,20.044 -0.004,11.068 -8.98,20.04 -20.04,20.04 z m 0,-60.948 c -11.072,0 -20.048,-8.976 -20.048,-20.04 0,-11.072 8.976,-20.048 20.048,-20.048 11.064,0 20.04,8.976 20.04,20.048 -0.004,11.064 -8.98,20.04 -20.04,20.04 z m 154.504,118.492 h -94.912 c -9.22,0 -16.696,-7.48 -16.696,-16.704 0,-9.224 7.476,-16.704 16.696,-16.704 h 94.916 c 9.22,0 16.696,7.48 16.696,16.704 0,9.224 -7.48,16.704 -16.7,16.704 z m 0,-60.952 h -94.912 c -9.22,0 -16.696,-7.476 -16.696,-16.704 0,-9.22 7.476,-16.7 16.696,-16.7 h 94.916 c 9.22,0 16.696,7.48 16.696,16.7 -0.004,9.228 -7.48,16.704 -16.7,16.704 z m 0,-60.956 h -94.912 c -9.22,0 -16.696,-7.476 -16.696,-16.7 0,-9.224 7.476,-16.7 16.696,-16.7 h 94.916 c 9.22,0 16.696,7.476 16.696,16.7 0,9.224 -7.48,16.7 -16.7,16.7 z"
     id="path131"
     style="stroke-width:8.8;stroke:#ffffff;stroke-opacity:1;stroke-miterlimit:4.5999999;stroke-dasharray:none" />
  <path
     fill="#ff0000"
     d="M 269.66,6.78 H 20.664001 c -6.628,0 -12,5.376 -12,12 v 249 c 0,6.628 5.372,12 12,12 H 269.664 c 6.632,0 12,-5.372 12,-12 v -249 c -0.004,-6.624 -5.372,-12 -12.004,-12 z M 69.584,221.072 c -11.072,0 -20.048,-8.968 -20.048,-20.04 0,-11.072 8.976,-20.04 20.048,-20.04 11.064,0 20.04,8.968 20.04,20.04 0,11.072 -8.98,20.04 -20.04,20.04 z m 0,-60.952 c -11.072,0 -20.048,-8.972 -20.048,-20.04 0,-11.072 8.976,-20.044 20.048,-20.044 11.064,0 20.04,8.972 20.04,20.044 -0.004,11.068 -8.98,20.04 -20.04,20.04 z m 0,-60.948002 c -11.072,0 -20.048,-8.975998 -20.048,-20.039998 0,-11.072 8.976,-20.048 20.048,-20.048 11.064,0 20.04,8.976 20.04,20.048 -0.004,11.064 -8.98,20.039998 -20.04,20.039998 z M 224.088,217.664 h -94.912 c -9.22,0 -16.696,-7.48 -16.696,-16.704 0,-9.224 7.476,-16.704 16.696,-16.704 h 94.916 c 9.22,0 16.696,7.48 16.696,16.704 0,9.224 -7.48,16.704 -16.7,16.704 z m 0,-60.952 h -94.912 c -9.22,0 -16.696,-7.476 -16.696,-16.704 0,-9.22 7.476,-16.7 16.696,-16.7 h 94.916 c 9.22,0 16.696,7.48 16.696,16.7 -0.004,9.228 -7.48,16.704 -16.7,16.704 z m 0,-60.956002 h -94.912 c -9.22,0 -16.696,-7.475998 -16.696,-16.699998 0,-9.224 7.476,-16.7 16.696,-16.7 h 94.916 c 9.22,0 16.696,7.476 16.696,16.7 0,9.224 -7.48,16.699998 -16.7,16.699998 z"
     id="path131-8"
     style="stroke-width:14.4;stroke-miterlimit:4.6;stroke-dasharray:none" />
  <ellipse
     style="fill:#ffffff;stroke:#ffffff;stroke-width:6.4;stroke-linecap:round;stroke-linejoin:bevel;stroke-miterlimit:4.6;stroke-dasharray:none;stroke-opacity:1;paint-order:markers fill stroke"
     id="path3089"
     cx="69.790588"
     cy="80.259178"
     rx="14.8305"
     ry="13.958117" />
  <ellipse
     style="fill:#ffffff;stroke:#ffffff;stroke-width:6.4;stroke-linecap:round;stroke-linejoin:bevel;stroke-miterlimit:4.6;stroke-dasharray:none;stroke-opacity:1;paint-order:markers fill stroke"
     id="path3091"
     cx="69.354393"
     cy="138.2726"
     rx="15.266691"
     ry="13.521926" />
</svg>
