<?xml version="1.0" encoding="utf-8"?>
<!-- Generator: Adobe Illustrator 16.0.0, SVG Export Plug-In . SVG Version: 6.00 Build 0)  -->
<!DOCTYPE svg PUBLIC "-//W3C//DTD SVG 1.1//EN" "http://www.w3.org/Graphics/SVG/1.1/DTD/svg11.dtd">
<svg version="1.1" id="Calque_1" xmlns="http://www.w3.org/2000/svg" xmlns:xlink="http://www.w3.org/1999/xlink" x="0px" y="0px"
	 width="128px" height="128px" viewBox="0 0 128 128" enable-background="new 0 0 128 128" xml:space="preserve">
<g id="Calque_1_1_" display="none">
	
		<circle display="inline" fill="none" stroke="#010202" stroke-width="2" stroke-linecap="round" stroke-linejoin="round" stroke-miterlimit="10" cx="68.755" cy="76.365" r="32.15"/>
	
		<circle display="inline" fill="none" stroke="#010202" stroke-width="2" stroke-linecap="round" stroke-linejoin="round" stroke-miterlimit="10" cx="68.755" cy="76.365" r="21.553"/>
	
		<line display="inline" fill="none" stroke="#010202" stroke-width="2" stroke-linecap="round" stroke-linejoin="round" stroke-miterlimit="10" x1="68.756" y1="54.813" x2="68.756" y2="44.215"/>
	
		<line display="inline" fill="none" stroke="#010202" stroke-width="2" stroke-linecap="round" stroke-linejoin="round" stroke-miterlimit="10" x1="68.756" y1="108.516" x2="68.756" y2="97.918"/>
	
		<line display="inline" fill="none" stroke="#010202" stroke-width="2" stroke-linecap="round" stroke-linejoin="round" stroke-miterlimit="10" x1="57.979" y1="57.699" x2="52.681" y2="48.522"/>
	
		<line display="inline" fill="none" stroke="#010202" stroke-width="2" stroke-linecap="round" stroke-linejoin="round" stroke-miterlimit="10" x1="84.831" y1="104.208" x2="79.532" y2="95.029"/>
	
		<line display="inline" fill="none" stroke="#010202" stroke-width="2" stroke-linecap="round" stroke-linejoin="round" stroke-miterlimit="10" x1="50.09" y1="65.589" x2="40.913" y2="60.29"/>
	
		<line display="inline" fill="none" stroke="#010202" stroke-width="2" stroke-linecap="round" stroke-linejoin="round" stroke-miterlimit="10" x1="96.6" y1="92.439" x2="87.421" y2="87.143"/>
	
		<line display="inline" fill="none" stroke="#010202" stroke-width="2" stroke-linecap="round" stroke-linejoin="round" stroke-miterlimit="10" x1="47.202" y1="76.365" x2="36.605" y2="76.365"/>
	
		<line display="inline" fill="none" stroke="#010202" stroke-width="2" stroke-linecap="round" stroke-linejoin="round" stroke-miterlimit="10" x1="100.904" y1="76.365" x2="90.309" y2="76.365"/>
	
		<line display="inline" fill="none" stroke="#010202" stroke-width="2" stroke-linecap="round" stroke-linejoin="round" stroke-miterlimit="10" x1="50.09" y1="87.143" x2="40.913" y2="92.439"/>
	
		<line display="inline" fill="none" stroke="#010202" stroke-width="2" stroke-linecap="round" stroke-linejoin="round" stroke-miterlimit="10" x1="96.6" y1="60.29" x2="87.421" y2="65.589"/>
	
		<line display="inline" fill="none" stroke="#010202" stroke-width="2" stroke-linecap="round" stroke-linejoin="round" stroke-miterlimit="10" x1="57.979" y1="95.031" x2="52.681" y2="104.208"/>
	
		<line display="inline" fill="none" stroke="#010202" stroke-width="2" stroke-linecap="round" stroke-linejoin="round" stroke-miterlimit="10" x1="84.831" y1="48.522" x2="79.532" y2="57.7"/>
	<g display="inline">
		<path fill="none" stroke="#010202" stroke-width="2" stroke-linecap="round" stroke-linejoin="round" stroke-miterlimit="10" d="
			M75.221,70.45c0-2.046-1.675-3.72-3.721-3.72h-5.488c-2.047,0-3.721,1.674-3.721,3.72v2.194c0,2.047,1.674,3.721,3.721,3.721H71.5
			c2.046,0,3.721,1.674,3.721,3.721v2.193c0,2.047-1.675,3.721-3.721,3.721h-5.488c-2.047,0-3.721-1.674-3.721-3.721"/>
		
			<line fill="none" stroke="#010202" stroke-width="2" stroke-linecap="round" stroke-linejoin="round" stroke-miterlimit="10" x1="68.756" y1="66.73" x2="68.756" y2="62.939"/>
		
			<line fill="none" stroke="#010202" stroke-width="2" stroke-linecap="round" stroke-linejoin="round" stroke-miterlimit="10" x1="68.756" y1="89.791" x2="68.756" y2="86"/>
	</g>
	<g display="inline">
		
			<path fill="none" stroke="#010202" stroke-width="0.5651" stroke-linecap="round" stroke-linejoin="round" stroke-miterlimit="10" d="
			M87.841,16.622c0-0.579-0.473-1.052-1.051-1.052h-1.552c-0.577,0-1.051,0.473-1.051,1.052v0.62c0,0.578,0.474,1.051,1.051,1.051
			h1.552c0.578,0,1.051,0.473,1.051,1.051v0.62c0,0.579-0.473,1.051-1.051,1.051h-1.552c-0.577,0-1.051-0.473-1.051-1.051"/>
		
			<line fill="none" stroke="#010202" stroke-width="0.5651" stroke-linecap="round" stroke-linejoin="round" stroke-miterlimit="10" x1="86.016" y1="15.57" x2="86.016" y2="14.5"/>
		
			<line fill="none" stroke="#010202" stroke-width="0.5651" stroke-linecap="round" stroke-linejoin="round" stroke-miterlimit="10" x1="86.016" y1="22.086" x2="86.016" y2="21.015"/>
	</g>
	<g display="inline">
		
			<path fill="none" stroke="#010202" stroke-width="0.5651" stroke-linecap="round" stroke-linejoin="round" stroke-miterlimit="10" d="
			M42.833,16.622c0-0.579-0.473-1.052-1.051-1.052h-1.551c-0.578,0-1.051,0.473-1.051,1.052v0.62c0,0.578,0.473,1.051,1.051,1.051
			h1.551c0.578,0,1.051,0.473,1.051,1.051v0.62c0,0.579-0.473,1.051-1.051,1.051h-1.551c-0.578,0-1.051-0.473-1.051-1.051"/>
		
			<line fill="none" stroke="#010202" stroke-width="0.5651" stroke-linecap="round" stroke-linejoin="round" stroke-miterlimit="10" x1="41.007" y1="15.57" x2="41.007" y2="14.5"/>
		
			<line fill="none" stroke="#010202" stroke-width="0.5651" stroke-linecap="round" stroke-linejoin="round" stroke-miterlimit="10" x1="41.007" y1="22.086" x2="41.007" y2="21.015"/>
	</g>
	<g display="inline">
		
			<path fill="none" stroke="#010202" stroke-width="0.5651" stroke-linecap="round" stroke-linejoin="round" stroke-miterlimit="10" d="
			M19.167,16.622c0-0.579-0.473-1.052-1.051-1.052h-1.551c-0.578,0-1.051,0.473-1.051,1.052v0.62c0,0.578,0.473,1.051,1.051,1.051
			h1.551c0.578,0,1.051,0.473,1.051,1.051v0.62c0,0.579-0.473,1.051-1.051,1.051h-1.551c-0.578,0-1.051-0.473-1.051-1.051"/>
		
			<line fill="none" stroke="#010202" stroke-width="0.5651" stroke-linecap="round" stroke-linejoin="round" stroke-miterlimit="10" x1="17.34" y1="15.57" x2="17.34" y2="14.5"/>
		
			<line fill="none" stroke="#010202" stroke-width="0.5651" stroke-linecap="round" stroke-linejoin="round" stroke-miterlimit="10" x1="17.34" y1="22.086" x2="17.34" y2="21.015"/>
	</g>
	<g display="inline">
		
			<path fill="none" stroke="#010202" stroke-width="0.5651" stroke-linecap="round" stroke-linejoin="round" stroke-miterlimit="10" d="
			M109.592,16.136c0-0.579-0.473-1.052-1.051-1.052h-1.551c-0.578,0-1.051,0.473-1.051,1.052v0.62c0,0.578,0.473,1.051,1.051,1.051
			h1.551c0.578,0,1.051,0.473,1.051,1.051v0.62c0,0.579-0.473,1.051-1.051,1.051h-1.551c-0.578,0-1.051-0.473-1.051-1.051"/>
		
			<line fill="none" stroke="#010202" stroke-width="0.5651" stroke-linecap="round" stroke-linejoin="round" stroke-miterlimit="10" x1="107.766" y1="15.084" x2="107.766" y2="14.013"/>
		
			<line fill="none" stroke="#010202" stroke-width="0.5651" stroke-linecap="round" stroke-linejoin="round" stroke-miterlimit="10" x1="107.766" y1="21.6" x2="107.766" y2="20.529"/>
	</g>
	<path display="inline" d="M86.016,9.03c-5.115,0-9.265,4.147-9.265,9.263s4.147,9.263,9.265,9.264
		c5.116-0.001,9.264-4.147,9.264-9.264C95.277,13.177,91.132,9.03,86.016,9.03z M86.016,26.987
		c-4.802-0.008-8.687-3.893-8.693-8.694c0.008-4.801,3.893-8.686,8.693-8.694c4.803,0.009,8.688,3.894,8.694,8.694
		C94.702,23.094,90.816,26.979,86.016,26.987z M86.018,11.948c-3.506,0.001-6.347,2.842-6.347,6.345
		c0,3.505,2.841,6.345,6.347,6.346c3.504-0.001,6.344-2.841,6.344-6.346C92.359,14.79,89.521,11.949,86.018,11.948z M86.018,24.07
		c-3.191-0.006-5.771-2.586-5.777-5.777c0.006-3.189,2.586-5.771,5.777-5.776c3.188,0.006,5.77,2.587,5.774,5.776
		C91.786,21.484,89.206,24.064,86.018,24.07z M86.018,11.275c0.26,0,0.473-0.211,0.473-0.472c0-0.261-0.213-0.473-0.473-0.473
		c-0.263,0-0.474,0.212-0.474,0.473C85.544,11.064,85.755,11.275,86.018,11.275z M83.331,11.809c0.239-0.1,0.354-0.376,0.254-0.617
		c-0.101-0.24-0.375-0.354-0.617-0.255c-0.239,0.1-0.354,0.376-0.254,0.617C82.814,11.795,83.089,11.909,83.331,11.809z
		 M81.055,13.331c0.184-0.184,0.184-0.483,0-0.668c-0.187-0.184-0.484-0.184-0.668,0c-0.185,0.186-0.185,0.484,0,0.668
		C80.568,13.515,80.868,13.515,81.055,13.331z M79.275,14.991c-0.239-0.1-0.518,0.015-0.616,0.255
		c-0.101,0.241,0.016,0.518,0.256,0.617c0.239,0.101,0.519-0.014,0.617-0.255C79.631,15.367,79.518,15.09,79.275,14.991z
		 M78.997,18.293c0.002-0.261-0.211-0.473-0.472-0.473c-0.262,0-0.473,0.211-0.473,0.473c0,0.261,0.211,0.473,0.473,0.472
		C78.786,18.766,78.997,18.554,78.997,18.293z M78.915,20.723c-0.242,0.1-0.354,0.376-0.256,0.617
		c0.103,0.241,0.377,0.355,0.616,0.255c0.24-0.1,0.355-0.375,0.257-0.616S79.154,20.624,78.915,20.723z M80.387,23.255
		c-0.187,0.185-0.187,0.483,0,0.668c0.186,0.185,0.483,0.185,0.668-0.001c0.184-0.183,0.186-0.481,0-0.667
		C80.87,23.071,80.568,23.071,80.387,23.255z M83.331,24.777c-0.242-0.101-0.519,0.015-0.617,0.256
		c-0.103,0.241,0.015,0.518,0.254,0.617c0.242,0.099,0.519-0.016,0.617-0.256C83.686,25.153,83.57,24.876,83.331,24.777z
		 M86.018,25.311c-0.263,0-0.474,0.211-0.474,0.472c0,0.262,0.211,0.474,0.474,0.473c0.26,0,0.473-0.211,0.471-0.473
		C86.488,25.522,86.275,25.311,86.018,25.311z M88.702,24.777c-0.242,0.1-0.354,0.376-0.257,0.617
		c0.1,0.241,0.375,0.355,0.617,0.256c0.24-0.101,0.355-0.377,0.254-0.617C89.221,24.792,88.941,24.676,88.702,24.777z
		 M90.979,23.255c-0.185,0.185-0.185,0.484,0,0.668c0.186,0.185,0.483,0.185,0.668,0c0.186-0.185,0.186-0.483,0-0.667
		C91.462,23.071,91.163,23.071,90.979,23.255z M93.116,20.723c-0.24-0.1-0.519,0.015-0.617,0.256
		c-0.101,0.24,0.017,0.517,0.256,0.616c0.24,0.102,0.519-0.014,0.617-0.255C93.471,21.099,93.357,20.822,93.116,20.723z
		 M93.507,17.822c-0.262-0.001-0.473,0.21-0.473,0.472c0,0.261,0.211,0.473,0.473,0.473c0.261,0,0.474-0.212,0.472-0.473
		C93.979,18.032,93.768,17.821,93.507,17.822z M93.116,15.863c0.241-0.1,0.354-0.376,0.256-0.617
		c-0.101-0.24-0.377-0.354-0.617-0.255c-0.239,0.099-0.354,0.376-0.256,0.617C92.598,15.849,92.876,15.963,93.116,15.863z
		 M91.646,13.331c0.186-0.184,0.186-0.482,0-0.668c-0.185-0.184-0.482-0.184-0.666,0.001c-0.187,0.185-0.187,0.482-0.002,0.667
		C91.163,13.515,91.462,13.515,91.646,13.331z M88.702,11.809c0.239,0.102,0.519-0.014,0.616-0.255
		c0.1-0.241-0.016-0.519-0.256-0.617c-0.242-0.1-0.518,0.015-0.617,0.255C88.348,11.434,88.46,11.709,88.702,11.809z"/>
	<g display="inline">
		<path d="M98.395,17.806c0-5.175,4.195-9.371,9.371-9.371l0,0c5.176,0,9.371,4.196,9.373,9.371l0,0
			c-0.002,5.176-4.197,9.372-9.373,9.372l0,0C102.59,27.178,98.395,22.982,98.395,17.806L98.395,17.806z M99.027,17.806
			c0.009,4.827,3.912,8.729,8.738,8.738l0,0c4.825-0.009,8.729-3.912,8.736-8.738l0,0c-0.008-4.826-3.911-8.729-8.736-8.737l0,0
			C102.939,9.078,99.036,12.98,99.027,17.806L99.027,17.806L99.027,17.806z"/>
	</g>
	<g display="inline">
		<path d="M101.314,17.806c0.002-3.562,2.891-6.45,6.451-6.451l0,0c3.563,0.001,6.45,2.889,6.45,6.451l0,0
			c0,3.563-2.889,6.451-6.45,6.452l0,0C104.205,24.257,101.316,21.369,101.314,17.806L101.314,17.806z M101.95,17.806
			c0.005,3.212,2.604,5.811,5.815,5.816l0,0c3.211-0.005,5.813-2.604,5.816-5.816l0,0c-0.005-3.212-2.604-5.81-5.816-5.815l0,0
			C104.557,11.996,101.955,14.594,101.95,17.806L101.95,17.806L101.95,17.806z"/>
	</g>
	
		<circle display="inline" fill="none" stroke="#000000" stroke-width="0.6539" stroke-miterlimit="10" cx="17.942" cy="18.167" r="8.943"/>
	
		<circle display="inline" fill="none" stroke="#000000" stroke-width="0.6539" stroke-miterlimit="10" cx="17.942" cy="18.167" r="5.891"/>
	
		<circle display="inline" fill="none" stroke="#000000" stroke-width="0.6539" stroke-miterlimit="10" cx="41.297" cy="18.167" r="8.943"/>
	
		<circle display="inline" fill="none" stroke="#000000" stroke-width="0.6539" stroke-miterlimit="10" cx="41.297" cy="18.167" r="5.89"/>
	
		<line display="inline" fill="none" stroke="#000000" stroke-width="0.6539" stroke-miterlimit="10" x1="16.17" y1="23.698" x2="16.17" y2="27.076"/>
	
		<line display="inline" fill="none" stroke="#000000" stroke-width="0.6539" stroke-miterlimit="10" x1="19.44" y1="23.698" x2="19.44" y2="27.131"/>
	
		<line display="inline" fill="none" stroke="#000000" stroke-width="0.6539" stroke-miterlimit="10" x1="26.688" y1="16.396" x2="23.418" y2="16.396"/>
	
		<line display="inline" fill="none" stroke="#000000" stroke-width="0.6539" stroke-miterlimit="10" x1="26.742" y1="19.774" x2="23.582" y2="19.774"/>
	
		<line display="inline" fill="none" stroke="#000000" stroke-width="0.6539" stroke-miterlimit="10" x1="12.193" y1="16.559" x2="9.033" y2="16.559"/>
	
		<line display="inline" fill="none" stroke="#000000" stroke-width="0.6539" stroke-miterlimit="10" x1="12.247" y1="19.72" x2="8.978" y2="19.72"/>
	
		<line display="inline" fill="none" stroke="#000000" stroke-width="0.6539" stroke-miterlimit="10" x1="16.116" y1="9.367" x2="16.116" y2="12.527"/>
	
		<line display="inline" fill="none" stroke="#000000" stroke-width="0.6539" stroke-miterlimit="10" x1="19.495" y1="9.203" x2="19.495" y2="12.363"/>
	
		<line display="inline" fill="none" stroke="#000000" stroke-width="0.6539" stroke-miterlimit="10" x1="39.689" y1="23.698" x2="39.689" y2="27.076"/>
	
		<line display="inline" fill="none" stroke="#000000" stroke-width="0.6539" stroke-miterlimit="10" x1="42.958" y1="23.698" x2="42.958" y2="27.131"/>
	
		<line display="inline" fill="none" stroke="#000000" stroke-width="0.6539" stroke-miterlimit="10" x1="50.206" y1="16.396" x2="46.937" y2="16.396"/>
	
		<line display="inline" fill="none" stroke="#000000" stroke-width="0.6539" stroke-miterlimit="10" x1="50.261" y1="19.774" x2="47.1" y2="19.774"/>
	
		<line display="inline" fill="none" stroke="#000000" stroke-width="0.6539" stroke-miterlimit="10" x1="35.711" y1="16.559" x2="32.551" y2="16.559"/>
	
		<line display="inline" fill="none" stroke="#000000" stroke-width="0.6539" stroke-miterlimit="10" x1="35.766" y1="19.72" x2="32.496" y2="19.72"/>
	
		<line display="inline" fill="none" stroke="#000000" stroke-width="0.6539" stroke-miterlimit="10" x1="39.635" y1="9.367" x2="39.635" y2="12.527"/>
	
		<line display="inline" fill="none" stroke="#000000" stroke-width="0.6539" stroke-miterlimit="10" x1="43.013" y1="9.203" x2="43.013" y2="12.363"/>
	
		<line display="inline" fill="none" stroke="#000000" stroke-width="0.6539" stroke-miterlimit="10" x1="10.34" y1="13.072" x2="12.683" y2="15.415"/>
	
		<line display="inline" fill="none" stroke="#000000" stroke-width="0.6539" stroke-miterlimit="10" x1="12.901" y1="10.783" x2="14.917" y2="12.963"/>
	
		<line display="inline" fill="none" stroke="#000000" stroke-width="0.6539" stroke-miterlimit="10" x1="22.982" y1="10.729" x2="20.857" y2="12.854"/>
	
		<line display="inline" fill="none" stroke="#000000" stroke-width="0.6539" stroke-miterlimit="10" x1="25.271" y1="13.126" x2="23.037" y2="15.251"/>
	
		<line display="inline" fill="none" stroke="#000000" stroke-width="0.6539" stroke-miterlimit="10" x1="25.326" y1="23.044" x2="23.091" y2="20.973"/>
	
		<line display="inline" fill="none" stroke="#000000" stroke-width="0.6539" stroke-miterlimit="10" x1="23.037" y1="25.55" x2="20.639" y2="23.425"/>
	
		<line display="inline" fill="none" stroke="#000000" stroke-width="0.6539" stroke-miterlimit="10" x1="12.738" y1="25.496" x2="14.917" y2="23.371"/>
	
		<line display="inline" fill="none" stroke="#000000" stroke-width="0.6539" stroke-miterlimit="10" x1="10.286" y1="23.044" x2="12.629" y2="21.191"/>
	<polyline display="inline" fill="none" stroke="#000000" stroke-width="0.6539" stroke-miterlimit="10" points="33.956,22.874 
		34.755,22.091 37.273,24.658 36.474,25.441 	"/>
	<polyline display="inline" fill="none" stroke="#000000" stroke-width="0.6539" stroke-miterlimit="10" points="46.004,25.453 
		45.22,24.654 47.788,22.136 48.571,22.935 	"/>
	<polyline display="inline" fill="none" stroke="#000000" stroke-width="0.6539" stroke-miterlimit="10" points="48.598,13.349 
		47.788,14.121 45.307,11.518 46.117,10.746 	"/>
	<polyline display="inline" fill="none" stroke="#000000" stroke-width="0.6539" stroke-miterlimit="10" points="36.376,10.749 
		37.165,11.543 34.615,14.08 33.827,13.286 	"/>
</g>
<g id="Calque_2">
	<g>
		<path fill="none" stroke="#FF0000" stroke-width="5" stroke-linecap="round" stroke-linejoin="round" stroke-miterlimit="10" d="
			M78.225,53.606c0-3.674-3.002-6.677-6.672-6.677h-9.846c-3.67,0-6.67,3.003-6.67,6.677v3.934c0,3.67,3,6.674,6.67,6.674h9.846
			c3.67,0,6.672,3,6.672,6.675v3.934c0,3.674-3.002,6.674-6.672,6.674h-9.846c-3.67,0-6.67-3-6.67-6.674"/>
		
			<line fill="none" stroke="#FF0000" stroke-width="5" stroke-linecap="round" stroke-linejoin="round" stroke-miterlimit="10" x1="66.63" y1="46.929" x2="66.63" y2="40.13"/>
		
			<line fill="none" stroke="#FF0000" stroke-width="5" stroke-linecap="round" stroke-linejoin="round" stroke-miterlimit="10" x1="66.63" y1="88.297" x2="66.63" y2="81.496"/>
	</g>
	<path fill="none" stroke="#FF0000" stroke-width="5" stroke-miterlimit="10" d="M121.977,63.415
		c0,31.354-25.42,56.778-56.775,56.778c-31.358,0-56.781-25.424-56.781-56.778C8.42,32.056,33.843,6.64,65.201,6.64
		C96.557,6.639,121.977,32.056,121.977,63.415z"/>
	<path fill="none" stroke="#FF0000" stroke-width="5" stroke-miterlimit="10" d="M102.596,63.415
		c0,20.651-16.746,37.396-37.396,37.396c-20.657,0-37.4-16.744-37.4-37.396c0-20.655,16.743-37.398,37.4-37.398
		C85.85,26.017,102.596,42.76,102.596,63.415z"/>
	<polyline fill="none" stroke="#FF0000" stroke-width="5" stroke-miterlimit="10" points="18.59,93.297 23.665,88.326 
		39.654,104.623 34.58,109.596 	"/>
	<polyline fill="none" stroke="#FF0000" stroke-width="5" stroke-miterlimit="10" points="52.14,118.344 52.209,111.24 
		75.042,111.457 74.977,118.563 	"/>
	<polyline fill="none" stroke="#FF0000" stroke-width="5" stroke-miterlimit="10" points="95.105,109.215 90.121,104.141 
		106.421,88.152 111.398,93.223 	"/>
	<polyline fill="none" stroke="#FF0000" stroke-width="5" stroke-miterlimit="10" points="119.322,75.658 112.211,75.59 
		112.436,52.76 119.534,52.829 	"/>
	<polyline fill="none" stroke="#FF0000" stroke-width="5" stroke-miterlimit="10" points="112.956,34.914 107.885,39.886 
		91.895,23.59 96.966,18.617 	"/>
	<polyline fill="none" stroke="#FF0000" stroke-width="5" stroke-miterlimit="10" points="79.061,8.137 78.986,15.245 
		56.156,15.024 56.223,7.923 	"/>
	<polyline fill="none" stroke="#FF0000" stroke-width="5" stroke-miterlimit="10" points="35.541,15.536 40.516,20.617 
		24.219,36.604 19.245,31.532 	"/>
	<polyline fill="none" stroke="#FF0000" stroke-width="5" stroke-miterlimit="10" points="10.494,51.864 17.601,51.932 
		17.385,74.76 10.283,74.695 	"/>
</g>
</svg>
