<?xml version="1.0" encoding="utf-8"?>
<!-- Generator: Adobe Illustrator 16.0.0, SVG Export Plug-In . SVG Version: 6.00 Build 0)  -->
<!DOCTYPE svg PUBLIC "-//W3C//DTD SVG 1.1//EN" "http://www.w3.org/Graphics/SVG/1.1/DTD/svg11.dtd">
<svg version="1.1" id="Capa_1" xmlns="http://www.w3.org/2000/svg" xmlns:xlink="http://www.w3.org/1999/xlink" x="0px" y="0px"
	 width="512px" height="512px" viewBox="0 0 512 512" enable-background="new 0 0 512 512" xml:space="preserve">
<g>
	<path fill="#FF0000" d="M483.489,138.478c-18.047-34.863-44.348-65.608-76.06-88.909c-3.345-2.457-8.051-1.74-10.51,1.607
		c-2.458,3.346-1.739,8.051,1.606,10.51c59.612,43.801,95.985,113.185,98.313,186.794h-57.244v-57.343
		c0-33.225-23.621-61.034-54.952-67.523c-12.688-35.975-30.462-66.249-51.568-87.698c-4.509-4.582-9.153-8.736-13.91-12.466
		c17.581,4.758,34.601,11.489,50.637,20.098c3.659,1.963,8.218,0.59,10.181-3.068c1.964-3.659,0.59-8.217-3.068-10.181
		C339.989,10.477,298.177,0,256,0c-68.38,0-132.668,26.628-181.02,74.98C26.63,123.332,0,187.62,0,256
		c0,25.956,3.873,51.568,11.51,76.125c1.002,3.223,3.972,5.287,7.178,5.287c0.739,0,1.492-0.11,2.235-0.342
		c3.965-1.233,6.179-5.447,4.946-9.412c-6.449-20.735-10.036-42.278-10.706-64.141h57.243v55.699
		c0,33.004,23.31,60.65,54.326,67.379c12.629,36.481,30.453,67.203,51.706,88.989c4.628,4.743,9.399,9.033,14.288,12.876
		C124.589,469.835,66.59,421.739,36.528,355.619c-1.718-3.778-6.172-5.453-9.955-3.732c-3.78,1.719-5.451,6.176-3.732,9.956
		c20.072,44.149,52.165,81.595,92.809,108.287C157.356,497.522,205.889,512,256,512c68.38,0,132.668-26.629,181.019-74.981
		C485.369,388.667,512,324.379,512,256C512,215.151,502.14,174.512,483.489,138.478L483.489,138.478z M368.114,122.183H263.519
		V15.426c20.598,2.087,40.795,12.706,58.838,31.039C340.676,65.081,356.373,91.123,368.114,122.183z M248.481,122.183H143.886
		c11.741-31.064,27.441-57.108,45.764-75.725c18.04-18.329,38.237-28.946,58.831-31.032V122.183z M15.166,248.481
		C18.485,140.773,92.826,50.65,192.83,23.456c-4.751,3.726-9.393,7.877-13.897,12.454c-21.111,21.449-38.888,51.726-51.576,87.705
		c-31.33,6.489-54.951,34.298-54.951,67.523v57.343H15.166z M87.443,319.217V191.138c0-29.731,24.188-53.918,53.918-53.918h229.276
		c29.731,0,53.919,24.188,53.919,53.918v128.079c0,29.73-24.188,53.918-53.919,53.918H141.361
		C111.631,373.136,87.443,348.947,87.443,319.217z M143.25,388.173h105.23v108.399C206.185,492.258,166.871,451.803,143.25,388.173z
		 M319.17,488.544c20.675-16.225,39.104-40.467,53.783-71.56c1.773-3.756,0.165-8.236-3.589-10.01
		c-3.753-1.772-8.235-0.166-10.009,3.59c-24.283,51.434-58.875,82.318-95.837,86.021V388.173h107.119
		c38.022,0,68.956-30.933,68.956-68.955V263.52h57.24C493.515,371.227,419.174,461.349,319.17,488.544L319.17,488.544z"/>
	<path fill="#FF0000" d="M253.943,212.393h100.84c-7.939,15.535-19.375,32.347-32.885,48.224c-1.26,1.48-2.534,2.938-3.813,4.384
		c-5.979-7.144-11.032-14.331-14.745-21.053c-2.007-3.633-6.582-4.956-10.217-2.945c-3.635,2.008-4.953,6.582-2.945,10.217
		c4.411,7.986,10.456,16.496,17.583,24.853c-11.969,12.181-24.359,22.587-35.982,30.112c-3.485,2.258-4.481,6.914-2.225,10.398
		c2.272,3.514,6.961,4.463,10.398,2.225c12.339-7.99,25.411-18.918,37.995-31.653c0.759,0.767,1.525,1.53,2.299,2.288
		c12.583,12.324,26.376,22.719,38.84,29.271c3.601,1.915,8.212,0.556,10.152-3.157c1.934-3.675,0.52-8.22-3.157-10.152
		c-11.203-5.891-23.744-15.373-35.313-26.703c-0.849-0.832-1.687-1.672-2.515-2.514c1.714-1.916,3.418-3.853,5.096-5.826
		c16.215-19.054,29.672-39.527,38.146-57.967h15.99c4.153,0,7.52-3.366,7.52-7.519s-3.366-7.519-7.52-7.519h-60.549v-28.657
		c0-4.153-3.366-7.519-7.52-7.519c-4.152,0-7.519,3.366-7.519,7.519v28.657h-57.957c-4.152,0-7.519,3.366-7.519,7.519
		S249.79,212.393,253.943,212.393L253.943,212.393z"/>
	<path fill="#FF0000" d="M210.004,297.754l9.464,25.078c1.466,3.885,5.805,5.846,9.689,4.379c3.885-1.466,5.845-5.803,4.379-9.689
		l-45.371-120.224c-0.025-0.069-0.053-0.136-0.08-0.204c-1.592-3.872-5.324-6.372-9.509-6.372c-0.004,0-0.007,0-0.01,0
		c-4.188,0.003-7.922,2.511-9.509,6.388c-0.022,0.057-0.046,0.115-0.068,0.172l-45.785,120.219c-1.479,3.88,0.47,8.224,4.351,9.702
		c3.779,1.47,8.228-0.432,9.702-4.352l9.559-25.098H210.004z M178.555,214.419l25.775,68.298h-51.786L178.555,214.419z"/>
</g>
</svg>
